<?xml version="1.0" standalone="no"?>
<!DOCTYPE svg PUBLIC "-//W3C//DTD SVG 20010904//EN"
 "http://www.w3.org/TR/2001/REC-SVG-20010904/DTD/svg10.dtd">
<svg version="1.0" xmlns="http://www.w3.org/2000/svg"
 width="840.000000pt" height="859.000000pt" viewBox="0 0 840.000000 859.000000"
 preserveAspectRatio="xMidYMid meet">

<g transform="translate(0.000000,859.000000) scale(0.100000,-0.100000)"
fill="#000000" stroke="none">
<path d="M4800 7904 c14 -10 29 -24 33 -31 4 -7 14 -13 22 -13 7 0 15 -4 17
-8 2 -4 39 -35 83 -67 44 -33 85 -64 91 -70 6 -6 36 -28 67 -49 32 -22 57 -43
57 -48 0 -4 6 -8 13 -8 7 0 24 -11 39 -25 15 -14 31 -25 37 -25 5 0 11 -3 13
-8 2 -4 23 -23 48 -42 25 -19 51 -40 58 -47 8 -7 23 -18 34 -24 20 -11 55 -39
92 -74 12 -11 41 -36 66 -55 95 -74 326 -299 407 -395 118 -142 153 -189 153
-204 0 -6 4 -11 8 -11 4 0 16 -15 27 -32 10 -18 21 -35 24 -38 10 -9 31 -44
37 -62 4 -10 10 -18 15 -18 5 0 9 -6 9 -14 0 -8 6 -21 13 -28 7 -7 26 -40 42
-73 16 -33 32 -62 36 -65 3 -3 14 -26 25 -52 10 -27 22 -48 26 -48 4 0 10 -16
14 -35 3 -19 10 -35 15 -35 5 0 9 -11 9 -25 0 -14 4 -25 10 -25 5 0 13 -18 16
-40 4 -22 10 -40 15 -40 5 0 9 -6 9 -14 0 -7 7 -27 15 -42 8 -16 15 -39 15
-51 0 -12 5 -25 10 -28 6 -3 10 -17 10 -30 0 -13 4 -26 9 -29 5 -4 12 -29 16
-56 4 -27 11 -52 16 -56 5 -3 9 -16 9 -30 0 -13 4 -32 10 -42 5 -9 14 -46 20
-82 6 -36 18 -103 26 -150 9 -47 18 -121 21 -165 3 -44 10 -83 16 -87 16 -10
16 -760 1 -779 -6 -8 -14 -62 -18 -122 -4 -59 -11 -119 -16 -133 -6 -14 -10
-41 -10 -60 0 -19 -4 -34 -9 -34 -4 0 -11 -33 -15 -72 -4 -40 -11 -77 -16 -82
-6 -6 -10 -22 -10 -37 0 -15 -4 -30 -9 -33 -5 -3 -12 -31 -16 -61 -3 -30 -11
-55 -16 -55 -5 0 -9 -10 -9 -23 0 -24 -27 -113 -40 -132 -3 -5 -15 -38 -26
-72 -10 -35 -22 -63 -26 -63 -5 0 -8 -9 -8 -19 0 -21 -30 -84 -42 -89 -5 -2
-8 -13 -8 -26 0 -12 -11 -37 -23 -56 -13 -19 -27 -47 -31 -62 -3 -16 -11 -28
-16 -28 -6 0 -10 -6 -10 -14 0 -8 -5 -16 -10 -18 -6 -2 -12 -17 -14 -33 -2
-16 -8 -31 -14 -33 -6 -2 -8 -10 -5 -18 3 -9 0 -12 -9 -9 -11 4 -13 -8 -11
-62 1 -38 2 -78 2 -90 1 -16 6 -21 21 -18 11 2 22 0 25 -6 4 -5 -5 -9 -19 -9
-16 0 -26 -6 -26 -15 0 -14 12 -19 33 -16 4 0 7 -4 7 -10 0 -7 -10 -9 -27 -4
-22 5 -25 4 -15 -8 7 -8 8 -18 4 -22 -4 -5 0 -4 8 1 8 4 21 9 28 10 19 3 22 7
24 37 1 14 6 23 10 21 5 -3 6 -10 3 -15 -4 -5 1 -12 10 -16 10 -3 20 0 25 6 5
9 9 4 14 -13 3 -14 11 -26 16 -26 6 0 10 -7 10 -16 0 -8 4 -12 10 -9 6 4 9 -6
7 -25 -2 -17 -7 -30 -10 -30 -4 0 -13 0 -19 0 -9 0 -8 4 2 10 13 9 13 12 -1
23 -9 6 -14 17 -13 22 5 13 -6 27 -33 43 -14 7 -23 8 -23 2 0 -5 5 -10 10 -10
6 0 10 -5 10 -11 0 -8 -4 -8 -12 -1 -9 7 -17 5 -28 -6 -13 -14 -12 -15 3 -9
14 5 17 3 13 -11 -7 -21 8 -49 18 -33 11 18 33 13 39 -9 6 -24 -11 -39 -40
-34 -12 2 -23 -3 -27 -12 -3 -8 -10 -12 -16 -9 -5 3 -10 2 -10 -4 0 -5 6 -12
13 -14 6 -3 2 -6 -10 -6 -25 -1 -33 -31 -8 -31 8 0 15 4 15 10 0 5 6 7 14 4
18 -7 10 -31 -12 -38 -13 -4 -12 -5 3 -4 43 1 46 -1 33 -21 -10 -16 -14 -17
-25 -5 -8 7 -21 10 -31 6 -14 -6 -13 -7 6 -10 13 -2 26 -10 29 -18 4 -10 9
-12 18 -4 9 8 14 6 19 -5 3 -9 11 -13 17 -9 6 3 15 0 20 -7 4 -7 11 -11 14 -7
3 3 -1 13 -10 22 -9 9 -12 17 -6 17 6 1 16 3 21 4 6 1 15 3 21 4 5 0 7 6 4 11
-3 6 1 10 9 10 17 0 22 15 8 24 -9 5 -34 -8 -33 -18 3 -23 0 -30 -8 -16 -6 8
-7 18 -5 22 3 4 0 8 -6 8 -7 0 -10 -6 -7 -14 3 -8 -3 -22 -13 -31 -16 -14 -20
-15 -24 -4 -8 25 -3 49 10 49 7 0 14 5 16 12 3 7 22 11 49 10 25 -1 52 5 63
13 23 17 15 31 -11 21 -21 -9 -23 -8 -23 2 0 7 5 9 43 11 15 1 29 13 41 36 11
19 23 35 28 35 4 0 8 6 8 14 0 8 6 21 13 28 25 25 134 204 141 231 3 15 11 27
16 27 6 0 10 7 10 15 0 8 4 15 9 15 5 0 12 12 16 27 3 15 15 39 26 54 10 15
19 30 19 33 0 14 35 86 42 86 5 0 8 7 8 16 0 9 14 46 31 83 40 87 44 97 65
156 9 28 21 54 26 60 4 5 8 19 8 31 0 13 4 25 9 28 5 4 12 24 16 46 4 22 10
40 14 40 3 0 15 38 26 85 10 47 23 85 27 85 4 0 8 13 8 28 0 16 7 51 15 78 8
27 15 61 15 77 0 15 4 27 8 27 8 0 30 154 38 270 3 36 9 74 15 85 12 24 6 490
-9 620 -11 108 -32 244 -40 265 -3 8 -11 44 -18 80 -19 100 -25 123 -34 145
-8 19 -24 82 -37 148 -3 15 -9 27 -13 27 -4 0 -11 20 -14 45 -4 24 -11 47 -17
50 -5 4 -9 17 -9 31 0 13 -4 24 -10 24 -5 0 -13 18 -16 40 -4 22 -10 40 -15
40 -5 0 -9 7 -9 15 0 8 -4 23 -10 33 -14 26 -56 124 -65 152 -4 14 -11 27 -14
30 -4 3 -15 25 -26 50 -11 25 -22 47 -25 50 -3 3 -17 29 -32 58 -42 81 -62
115 -75 130 -7 7 -13 20 -13 28 0 8 -3 14 -8 14 -7 0 -25 30 -38 63 -3 9 -10
17 -15 17 -5 0 -9 6 -9 13 0 7 -11 24 -25 39 -14 15 -25 30 -25 33 0 7 -101
147 -116 160 -6 6 -18 21 -27 34 -31 47 -104 127 -252 275 -153 154 -186 185
-265 246 -25 19 -46 38 -48 42 -2 5 -8 8 -14 8 -5 0 -16 6 -23 13 -33 29 -45
37 -54 37 -5 0 -11 3 -13 8 -1 4 -28 23 -58 42 -30 19 -57 37 -60 40 -3 3 -21
14 -40 24 -19 11 -37 22 -40 25 -10 11 -72 41 -85 41 -7 0 -15 3 -17 8 -4 10
-67 42 -84 42 -8 0 -14 4 -14 9 0 5 -13 12 -30 16 -16 4 -32 11 -35 16 -4 5
-15 9 -26 9 -10 0 -19 5 -19 10 0 6 -10 10 -22 10 -13 0 -36 7 -52 15 -15 8
-37 15 -47 15 -10 0 -20 4 -24 9 -3 6 -26 13 -50 17 -25 3 -48 10 -51 15 -3 5
-16 9 -30 9 -14 0 -33 4 -43 9 -9 5 -46 13 -81 16 -64 7 -65 7 -40 -11z m1477
-4880 c-3 -3 -12 -4 -19 -1 -8 3 -5 6 6 6 11 1 17 -2 13 -5z m8 -24 c-3 -5
-13 -10 -21 -10 -8 0 -14 5 -14 10 0 6 9 10 21 10 11 0 17 -4 14 -10z m23 -35
c-4 -38 -2 -41 25 -21 20 15 22 32 5 39 -8 3 -6 6 5 6 12 1 17 -7 17 -24 0
-16 6 -25 15 -25 8 0 15 -4 15 -10 0 -5 -8 -6 -17 -3 -12 5 -15 2 -10 -10 4
-11 1 -17 -8 -17 -8 0 -15 -9 -15 -20 0 -13 5 -18 15 -14 8 4 15 1 15 -6 0 -6
-10 -10 -22 -8 -26 4 -32 44 -9 58 13 7 13 11 4 21 -10 10 -16 5 -27 -22 -15
-33 -17 -34 -20 -6 0 6 -11 13 -23 15 -30 4 -29 15 2 32 14 7 25 22 25 32 0
10 3 18 6 18 3 0 4 -16 2 -35z m47 -204 c-3 -6 -11 -9 -16 -6 -5 4 -9 1 -9 -6
0 -7 -3 -10 -6 -7 -3 4 0 16 6 28 8 15 15 19 22 12 6 -6 7 -15 3 -21z m111 10
c0 -11 -8 -22 -18 -24 -10 -3 -18 -1 -18 4 0 5 5 9 10 9 17 0 11 18 -7 23 -12
3 -10 5 7 6 19 1 26 -4 26 -18z m-8 -62 c-5 -19 20 -21 25 -2 4 16 5 16 6 1 1
-19 -3 -23 -41 -32 -32 -7 -38 9 -10 30 21 17 23 17 20 3z m-68 -24 c0 -8 -4
-15 -9 -15 -13 0 -22 16 -14 24 11 11 23 6 23 -9z m-26 -38 c5 -22 -11 -50
-24 -42 -5 3 -11 -1 -13 -7 -4 -9 -6 -10 -6 -1 -1 6 3 14 8 17 11 7 2 46 -10
46 -5 0 -9 -8 -10 -17 0 -11 -2 -13 -6 -5 -3 7 -3 19 0 26 8 21 54 8 61 -17z
m40 -8 c-3 -5 -10 -7 -15 -3 -5 3 -7 10 -3 15 3 5 10 7 15 3 5 -3 7 -10 3 -15z"/>
<path d="M3545 7900 c-11 -5 -39 -9 -62 -9 -23 -1 -44 -5 -47 -10 -3 -4 -29
-11 -57 -15 -28 -4 -58 -11 -67 -15 -10 -5 -42 -16 -72 -26 -58 -18 -72 -23
-132 -49 -20 -9 -43 -16 -52 -16 -9 0 -16 -3 -16 -8 0 -8 -73 -42 -90 -42 -6
0 -10 -3 -10 -7 0 -5 -19 -17 -43 -28 -51 -24 -195 -113 -221 -137 -11 -10
-23 -18 -26 -18 -4 0 -18 -9 -31 -20 -38 -31 -43 -35 -68 -52 -101 -70 -456
-425 -495 -495 -5 -10 -14 -23 -20 -29 -6 -6 -22 -25 -36 -43 -14 -18 -31 -39
-38 -46 -6 -8 -12 -18 -12 -24 0 -6 -3 -11 -8 -11 -4 0 -16 -16 -26 -35 -11
-19 -23 -35 -28 -35 -4 0 -8 -4 -8 -8 0 -5 -25 -47 -55 -93 -30 -46 -55 -90
-55 -96 0 -7 -4 -13 -9 -13 -5 0 -11 -8 -14 -17 -6 -18 -55 -106 -83 -150 -8
-12 -14 -29 -14 -38 0 -8 -4 -15 -9 -15 -5 0 -12 -13 -16 -30 -4 -16 -11 -30
-16 -30 -5 0 -9 -6 -9 -14 0 -7 -11 -34 -25 -60 -14 -26 -25 -51 -25 -56 0 -5
-11 -33 -24 -62 -32 -72 -56 -140 -56 -161 0 -9 -4 -17 -9 -17 -5 0 -12 -18
-16 -40 -4 -22 -11 -42 -16 -46 -5 -3 -9 -16 -9 -29 0 -13 -4 -26 -9 -29 -5
-4 -12 -29 -16 -56 -4 -27 -11 -52 -16 -56 -5 -3 -9 -18 -9 -34 0 -16 -4 -31
-9 -35 -5 -3 -13 -34 -16 -70 -4 -36 -11 -65 -15 -65 -5 0 -11 -21 -14 -47 -3
-27 -12 -93 -20 -148 -24 -156 -25 -160 -37 -345 -11 -176 0 -495 21 -580 8
-32 23 -131 37 -235 3 -22 9 -44 13 -50 5 -5 11 -36 15 -68 4 -31 11 -60 16
-63 5 -3 9 -18 9 -34 0 -16 4 -31 9 -35 6 -3 13 -26 17 -50 3 -25 10 -48 15
-51 5 -3 9 -13 9 -23 0 -10 7 -32 15 -47 8 -16 15 -39 15 -51 0 -13 5 -23 10
-23 6 0 10 -9 10 -20 0 -11 4 -20 10 -20 5 0 13 -18 16 -40 4 -22 10 -40 15
-40 5 0 9 -5 9 -10 0 -16 110 -239 121 -245 5 -4 9 -15 9 -26 0 -10 5 -19 10
-19 6 0 10 -7 10 -15 0 -8 4 -15 9 -15 5 0 13 -10 17 -22 6 -20 43 -83 67
-113 30 -39 87 -128 87 -135 0 -6 3 -10 8 -10 4 0 23 -23 42 -50 19 -27 38
-50 43 -50 4 0 7 -5 7 -10 0 -6 11 -23 25 -38 14 -15 25 -30 25 -34 0 -3 16
-23 35 -43 19 -21 37 -45 40 -56 3 -10 15 -21 25 -24 10 -3 22 -15 25 -26 4
-10 11 -19 16 -19 5 0 9 -7 9 -16 0 -10 5 -14 16 -10 8 3 12 2 9 -4 -3 -6 -1
-10 4 -10 6 0 12 12 12 28 l1 27 8 -30 8 -30 1 28 c0 15 5 27 11 27 21 0 1
-53 -21 -56 -19 -3 -19 -4 -7 -18 11 -11 15 -11 26 5 7 11 17 17 22 14 10 -6
26 14 33 40 4 15 5 13 6 -7 1 -18 7 -28 16 -28 10 0 15 10 15 28 0 21 -2 24
-10 12 -7 -12 -10 -8 -10 15 0 21 -3 26 -9 16 -10 -16 -18 -4 -15 26 0 13 -3
23 -8 23 -5 0 -8 -8 -7 -18 1 -9 1 -24 0 -32 -1 -12 -3 -13 -10 -1 -5 7 -7 23
-5 35 4 20 4 20 -5 1 -8 -19 -9 -19 -16 -2 -6 15 -10 16 -17 5 -8 -11 -9 -10
-6 1 2 8 19 16 38 18 19 2 37 8 39 14 2 7 6 6 12 -2 7 -11 9 -11 9 -1 0 7 5
10 10 7 6 -3 10 1 10 9 0 11 -11 14 -40 13 -25 -1 -40 -6 -40 -14 0 -7 -4 -13
-10 -13 -5 0 -6 8 -3 18 9 22 33 47 33 33 0 -6 5 -11 10 -11 6 0 10 9 10 20 0
16 -5 19 -25 16 -20 -4 -25 -1 -25 17 0 17 2 19 9 8 7 -11 10 -9 13 10 2 15 9
24 20 23 9 -1 19 5 22 13 3 8 1 11 -4 8 -6 -3 -10 0 -10 8 0 10 7 13 19 10 16
-4 20 0 18 17 -1 15 -6 20 -20 16 -14 -3 -16 -2 -7 9 9 11 18 12 49 6 2 -1 -3
-9 -10 -18 -12 -15 -12 -16 4 -10 9 3 17 2 17 -2 0 -5 -7 -12 -16 -15 -8 -3
-12 -11 -8 -17 5 -8 3 -9 -5 -4 -9 5 -9 1 1 -14 l13 -21 5 22 c5 20 13 23 68
26 74 4 84 17 11 17 -28 -1 -53 3 -55 7 -3 4 16 8 43 8 38 1 44 3 30 11 -12 7
-16 17 -12 30 5 16 3 20 -11 17 -10 -2 -19 2 -19 9 0 20 -14 26 -29 14 -21
-18 -34 -6 -28 25 4 21 2 25 -9 20 -8 -4 -6 -1 5 8 17 14 17 16 2 31 -9 9 -16
21 -16 27 0 6 -8 18 -18 27 -23 20 -112 163 -112 179 0 7 -4 12 -8 12 -5 0
-17 17 -28 38 -10 20 -21 39 -25 42 -8 8 -39 77 -39 89 0 6 -3 11 -8 11 -4 0
-13 15 -21 33 -7 17 -27 60 -42 93 -16 34 -29 69 -29 78 0 9 -4 16 -10 16 -5
0 -10 8 -10 18 0 9 -7 30 -15 46 -8 15 -15 34 -15 41 0 7 -7 26 -15 41 -8 16
-15 41 -15 57 0 15 -4 27 -10 27 -5 0 -10 10 -10 23 0 13 -4 27 -9 32 -8 9
-20 54 -38 150 -3 17 -9 35 -13 40 -5 6 -12 38 -16 73 -3 34 -11 65 -15 68 -5
3 -9 23 -9 45 0 22 -4 49 -10 59 -5 10 -12 65 -16 122 -3 56 -10 112 -15 123
-12 25 -5 585 9 716 6 53 15 113 21 135 6 21 11 53 11 70 0 17 3 34 7 38 5 4
14 38 21 74 22 114 25 127 31 132 6 4 21 60 38 143 3 15 9 27 14 27 5 0 9 10
9 23 0 12 7 35 15 51 8 15 15 35 15 42 0 8 5 14 10 14 6 0 10 9 10 21 0 11 6
33 14 47 7 15 18 38 24 52 31 72 148 307 159 318 7 7 13 20 13 28 0 8 4 14 9
14 5 0 11 8 14 18 3 9 20 40 37 67 16 28 33 58 36 68 4 9 10 17 15 17 5 0 9 5
9 10 0 9 174 256 190 270 3 3 21 25 40 50 19 25 44 56 55 70 32 39 337 341
383 380 24 19 49 41 57 48 7 6 18 12 24 12 6 0 11 4 11 8 0 4 15 16 33 27 17
10 34 21 37 24 3 3 79 55 170 116 91 60 167 112 170 115 7 7 42 29 60 37 8 4
17 9 20 13 12 14 61 40 75 40 9 0 13 5 10 10 -7 12 -42 12 -70 0z m-1169
-5049 c-6 -9 18 -34 25 -26 3 2 5 -5 5 -15 0 -16 -7 -20 -31 -20 -36 0 -56 16
-47 39 5 14 4 15 -14 1 -18 -14 -18 -14 -5 2 7 10 17 15 22 12 5 -3 17 0 26 5
22 13 26 13 19 2z m-154 -339 c9 -9 9 -12 0 -12 -7 0 -12 6 -12 13 0 9 -2 9
-9 -1 -7 -11 -9 -11 -14 1 -7 18 17 17 35 -1z"/>
<path d="M2345 2830 c-7 -11 2 -30 13 -30 4 0 8 9 9 20 2 21 -11 27 -22 10z"/>
<path d="M2710 7831 c0 -5 -25 -13 -55 -16 -30 -4 -58 -11 -61 -16 -3 -5 -18
-9 -34 -9 -16 0 -31 -4 -34 -9 -4 -5 -29 -12 -56 -16 -27 -4 -52 -11 -56 -16
-3 -5 -16 -9 -30 -9 -13 0 -24 -4 -24 -10 0 -5 -5 -10 -12 -10 -11 0 -138 -60
-148 -70 -3 -3 -23 -14 -45 -25 -22 -11 -42 -22 -45 -26 -3 -3 -12 -8 -20 -12
-18 -8 -53 -30 -60 -37 -3 -3 -25 -21 -50 -40 -25 -19 -46 -38 -48 -42 -2 -5
-8 -8 -13 -8 -14 0 -219 -206 -219 -219 0 -6 -3 -11 -7 -11 -5 0 -24 -23 -43
-50 -19 -27 -38 -50 -42 -50 -5 0 -8 -6 -8 -14 0 -8 -6 -21 -13 -28 -7 -7 -21
-29 -30 -48 -22 -43 -40 -73 -49 -80 -3 -3 -10 -18 -13 -33 -4 -15 -11 -27
-16 -27 -5 0 -9 -6 -9 -14 0 -7 -7 -27 -15 -42 -8 -16 -15 -37 -15 -46 0 -10
-4 -18 -10 -18 -5 0 -10 -11 -10 -25 0 -14 -3 -25 -8 -25 -4 0 -13 -21 -20
-47 -7 -27 -17 -64 -23 -83 -6 -19 -16 -60 -23 -90 -7 -30 -15 -62 -19 -70 -3
-8 -8 -35 -11 -60 -3 -25 -10 -79 -15 -120 -5 -41 -10 -135 -10 -207 -1 -107
2 -133 13 -133 14 0 31 34 41 85 4 17 10 39 15 50 4 11 16 47 26 80 10 33 22
64 26 69 4 6 8 16 8 24 0 8 7 30 16 50 28 63 41 96 55 135 7 20 17 37 21 37 4
0 8 8 8 18 0 10 6 26 13 37 8 11 22 41 32 68 10 26 20 47 24 47 3 0 20 29 36
65 17 36 33 65 38 65 4 0 7 6 7 14 0 8 6 21 13 28 6 7 21 30 32 51 11 20 23
37 27 37 5 0 8 4 8 9 0 11 75 125 103 155 9 11 17 23 17 27 0 4 14 21 30 37
17 17 30 33 30 37 0 4 6 12 13 19 6 7 39 43 72 81 83 94 117 128 141 145 12 8
43 35 70 59 46 41 146 111 159 111 3 0 34 18 69 40 35 22 68 40 75 40 6 0 11
3 11 8 0 4 17 16 38 27 20 11 39 22 42 25 3 3 23 14 45 25 22 11 45 25 52 32
7 6 26 17 43 25 16 7 30 16 30 20 0 3 13 9 30 13 58 13 41 25 -34 25 -42 0
-76 -4 -76 -9z"/>
<path d="M5584 7832 c3 -5 24 -19 45 -30 55 -29 85 -46 91 -52 10 -10 45 -31
63 -36 9 -4 17 -10 17 -15 0 -5 6 -9 14 -9 8 0 21 -6 28 -12 8 -7 23 -18 33
-24 75 -41 91 -50 95 -55 3 -4 15 -9 28 -13 12 -4 22 -12 22 -17 0 -5 7 -9 15
-9 8 0 15 -4 15 -10 0 -5 6 -10 14 -10 8 0 21 -6 28 -13 7 -6 30 -21 51 -32
20 -11 37 -23 37 -27 0 -5 5 -8 10 -8 6 0 18 -6 26 -12 42 -35 247 -244 271
-276 15 -20 30 -39 33 -42 3 -3 21 -25 40 -50 19 -25 38 -46 42 -48 5 -2 8 -8
8 -13 0 -6 11 -22 25 -37 14 -15 25 -32 25 -39 0 -6 3 -13 8 -15 10 -4 92
-127 92 -138 0 -5 3 -10 8 -12 7 -3 25 -35 71 -123 14 -27 29 -51 34 -53 4 -2
7 -8 7 -13 0 -16 34 -89 42 -89 4 0 10 -16 14 -35 3 -19 10 -35 15 -35 5 0 9
-9 9 -19 0 -11 4 -22 9 -26 5 -3 13 -20 17 -37 3 -18 10 -39 15 -48 17 -31 39
-93 39 -111 0 -11 4 -19 9 -19 5 0 12 -22 16 -50 4 -27 11 -52 16 -56 5 -3 9
-21 9 -40 0 -19 5 -34 10 -34 6 0 10 -18 10 -39 0 -24 5 -41 14 -44 10 -4 15
12 20 67 7 79 -2 265 -14 281 -4 6 -10 38 -14 73 -3 35 -10 71 -16 82 -5 10
-10 35 -10 54 0 20 -4 36 -9 36 -5 0 -12 22 -16 50 -4 27 -11 52 -16 56 -5 3
-9 16 -9 29 0 13 -4 26 -9 29 -5 4 -12 24 -16 46 -4 22 -11 42 -16 46 -5 3 -9
14 -9 25 0 10 -4 19 -9 19 -5 0 -12 14 -16 30 -7 33 -99 215 -116 230 -3 3 -9
12 -13 20 -22 47 -120 186 -153 217 -13 12 -23 26 -23 30 0 21 -274 263 -298
263 -6 0 -12 3 -14 8 -7 17 -149 94 -248 134 -14 6 -32 14 -40 18 -9 4 -31 11
-50 15 -19 4 -39 11 -45 15 -5 4 -23 10 -40 13 -16 4 -66 14 -110 22 -102 21
-240 31 -231 17z"/>
<path d="M7240 6975 c0 -14 4 -25 9 -25 5 0 12 -22 16 -50 4 -27 10 -50 15
-50 4 0 10 -12 13 -27 14 -65 32 -123 39 -123 5 0 8 -8 8 -17 1 -21 34 -120
44 -130 3 -3 6 -17 6 -29 0 -13 4 -25 9 -28 5 -3 12 -22 16 -42 3 -20 10 -44
14 -53 15 -28 41 -115 41 -133 0 -10 4 -18 9 -18 5 0 12 -22 16 -50 4 -27 11
-52 16 -56 5 -3 9 -21 9 -40 0 -19 4 -34 8 -34 7 0 26 -87 38 -180 3 -19 9
-44 14 -55 18 -43 52 -429 53 -605 0 -162 -36 -581 -53 -612 -6 -10 -10 -36
-10 -57 0 -22 -4 -42 -9 -46 -5 -3 -13 -34 -16 -70 -4 -36 -11 -68 -16 -71 -5
-3 -9 -19 -9 -35 0 -16 -7 -46 -15 -66 -8 -19 -15 -44 -15 -54 0 -11 -4 -27
-9 -37 -13 -28 -41 -118 -41 -136 0 -9 -4 -16 -10 -16 -5 0 -10 -9 -10 -21 0
-12 -7 -37 -16 -57 -24 -56 -31 -72 -50 -129 -10 -29 -22 -53 -26 -53 -4 0 -8
-10 -8 -23 0 -13 -7 -32 -15 -43 -8 -10 -15 -27 -15 -36 0 -10 -4 -18 -9 -18
-5 0 -12 -14 -16 -30 -4 -17 -11 -30 -16 -30 -5 0 -9 -7 -9 -16 0 -18 -31 -77
-42 -82 -5 -2 -8 -14 -8 -27 0 -12 -7 -28 -15 -35 -8 -7 -15 -19 -15 -26 0 -8
-4 -14 -10 -14 -5 0 -10 -6 -10 -13 0 -14 -126 -228 -140 -237 -4 -3 -10 -14
-14 -25 -3 -11 -17 -33 -31 -49 -14 -16 -25 -35 -25 -43 0 -7 -4 -13 -8 -13
-5 0 -17 -16 -28 -35 -10 -19 -22 -35 -26 -35 -5 0 -8 -6 -8 -14 0 -8 -4 -16
-8 -18 -4 -1 -23 -23 -42 -48 -19 -24 -50 -60 -67 -80 -18 -19 -33 -38 -33
-42 0 -4 -10 -17 -22 -30 -68 -69 -129 -150 -125 -162 4 -10 0 -13 -14 -11
-24 5 -25 -10 -1 -25 15 -10 14 -11 -5 -7 -18 4 -23 1 -23 -14 0 -10 -5 -19
-11 -19 -6 0 -8 7 -4 18 4 11 3 14 -4 7 -14 -15 -17 -29 -7 -35 12 -7 66 -60
66 -66 0 -2 -7 -4 -15 -4 -8 0 -15 4 -15 8 0 4 -9 8 -20 8 -11 0 -20 -4 -20
-8 0 -4 -7 -5 -15 -2 -8 4 -13 9 -10 13 3 7 -18 7 -57 2 -5 -1 -8 -6 -8 -12 0
-5 5 -7 10 -4 6 3 15 3 21 -1 8 -4 7 -9 -2 -15 -10 -6 -10 -9 -2 -9 6 0 14 4
18 10 3 5 15 6 28 1 12 -4 29 -6 37 -4 13 4 13 3 0 -6 -12 -8 -9 -15 18 -39
37 -34 40 -42 11 -42 -11 0 -18 4 -14 9 3 6 -2 14 -11 19 -9 5 -15 13 -15 17
1 5 -10 10 -24 12 -23 3 -26 0 -23 -19 3 -20 -1 -23 -24 -20 -16 2 -28 -1 -28
-8 0 -6 5 -8 10 -5 6 4 16 2 23 -3 7 -5 20 -8 30 -7 9 2 17 -1 17 -6 0 -5 -3
-9 -7 -10 -33 -3 -69 -11 -73 -16 -9 -10 72 5 82 15 11 11 1 35 -11 27 -5 -2
-8 7 -8 20 0 29 15 33 23 8 13 -43 27 -67 31 -56 3 10 9 10 24 0 23 -14 25
-47 3 -47 -26 0 -9 -25 19 -28 29 -4 32 -9 17 -32 -8 -12 -10 -12 -15 2 -4 9
-14 15 -24 13 -23 -4 -52 14 -33 22 6 2 9 9 6 15 -4 6 -10 5 -15 -3 -6 -10 -9
-11 -9 -1 0 6 -4 12 -8 12 -5 0 -9 -7 -9 -15 0 -8 4 -12 9 -9 4 3 8 0 8 -6 0
-7 -9 -14 -20 -17 -33 -9 -23 -20 15 -17 19 2 35 -1 35 -6 0 -6 7 -10 15 -10
8 0 15 6 15 12 0 7 8 1 17 -12 20 -28 25 -77 10 -87 -6 -3 -7 -2 -4 3 3 6 1
16 -4 24 -7 11 -8 8 -5 -10 3 -14 5 -29 5 -33 1 -5 5 -6 10 -3 5 3 11 -3 14
-14 3 -11 1 -17 -4 -14 -6 3 -7 -8 -4 -28 4 -23 2 -29 -4 -18 -5 8 -7 18 -4
24 4 5 1 6 -6 2 -7 -5 -10 -14 -7 -21 2 -7 0 -17 -6 -23 -6 -6 -6 -12 1 -16 6
-4 11 0 11 9 0 9 4 14 9 11 5 -3 14 1 21 9 7 8 17 15 22 15 5 0 21 11 36 25
15 14 30 25 34 25 4 0 25 17 47 38 116 109 151 143 151 147 0 2 16 20 35 41
19 20 35 40 35 44 0 6 15 25 65 82 8 10 15 22 15 28 0 5 11 20 25 34 14 14 25
29 25 35 0 5 6 16 13 23 26 28 67 87 67 97 0 6 3 11 8 11 7 0 25 30 38 63 3 9
10 17 15 17 5 0 9 6 9 13 0 8 11 27 25 43 14 16 25 34 25 41 0 6 6 18 13 25 7
7 21 29 30 48 21 42 40 73 48 80 4 3 10 16 14 30 4 14 11 27 15 30 10 7 90
175 90 188 0 7 3 12 8 12 8 0 42 73 42 90 0 6 5 10 10 10 6 0 10 10 10 23 0
12 7 31 15 41 8 11 15 28 15 38 0 10 4 18 9 18 5 0 12 18 16 40 4 22 11 40 16
40 5 0 9 11 9 25 0 14 5 25 10 25 6 0 10 8 10 18 0 9 7 30 15 46 8 15 15 37
15 47 0 11 4 19 9 19 5 0 12 20 15 45 4 24 11 47 17 50 5 4 9 17 9 31 0 13 4
24 8 24 8 0 24 63 39 148 3 17 9 32 13 32 4 0 11 26 15 58 4 31 10 62 15 67 8
10 11 25 32 162 7 45 16 85 21 89 4 4 7 29 7 56 0 27 4 57 9 67 8 14 35 395
34 481 -1 79 -25 435 -30 443 -3 5 -10 37 -14 71 -16 116 -34 215 -41 222 -5
4 -8 22 -8 40 0 18 -4 35 -9 38 -5 3 -12 27 -16 53 -4 27 -10 53 -14 58 -4 6
-15 35 -25 65 -10 30 -21 64 -26 75 -26 62 -63 143 -75 167 -8 14 -15 33 -15
41 0 9 -3 17 -7 19 -5 2 -23 31 -40 66 -40 77 -57 106 -63 112 -3 3 -14 23
-25 45 -11 22 -36 67 -57 101 -21 34 -38 66 -38 72 0 6 -3 12 -7 14 -5 2 -20
26 -34 53 -15 28 -45 85 -68 128 -22 43 -41 84 -41 91 0 8 -11 21 -25 30 -24
16 -25 16 -25 -9z m-683 -4501 c-3 -3 -12 -4 -19 -1 -8 3 -5 6 6 6 11 1 17 -2
13 -5z m17 -109 c-18 -28 -26 -33 -18 -11 3 8 0 16 -8 19 -7 2 -5 3 4 2 10 -2
21 1 24 6 3 5 7 9 10 9 2 0 -3 -11 -12 -25z m16 -89 c0 -8 -4 -18 -10 -21 -5
-3 -10 3 -10 14 0 12 5 21 10 21 6 0 10 -6 10 -14z m67 -8 c-3 -8 -6 -5 -6 6
-1 11 2 17 5 13 3 -3 4 -12 1 -19z m-44 -58 c-3 -12 -8 -19 -11 -16 -5 6 5 36
12 36 2 0 2 -9 -1 -20z m1 -76 c3 -8 2 -12 -4 -9 -6 3 -10 10 -10 16 0 14 7
11 14 -7z m43 -29 c0 -8 -4 -12 -9 -9 -5 3 -6 10 -3 15 9 13 12 11 12 -6z
m-17 -85 c0 -5 -2 -10 -4 -10 -3 0 -8 5 -11 10 -3 6 -1 10 4 10 6 0 11 -4 11
-10z"/>
<path d="M1123 6924 c-29 -30 -53 -57 -53 -60 0 -3 -18 -29 -40 -59 -22 -30
-40 -58 -40 -64 0 -5 -3 -11 -7 -13 -10 -4 -123 -231 -123 -246 0 -7 -4 -12
-10 -12 -5 0 -10 -11 -10 -24 0 -14 -4 -27 -9 -31 -5 -3 -12 -19 -16 -35 -4
-17 -11 -30 -16 -30 -5 0 -9 -9 -9 -21 0 -11 -6 -33 -14 -47 -14 -28 -21 -45
-51 -122 -10 -25 -21 -54 -25 -65 -5 -11 -16 -45 -26 -75 -9 -30 -20 -64 -25
-75 -4 -11 -12 -40 -18 -65 -5 -25 -15 -63 -21 -85 -7 -22 -18 -71 -24 -110
-7 -38 -15 -77 -19 -85 -8 -20 -15 -75 -33 -255 -21 -222 -28 -447 -15 -540 6
-44 15 -132 20 -195 6 -63 15 -144 20 -180 20 -130 37 -225 43 -240 4 -8 9
-28 12 -45 14 -81 32 -154 39 -161 4 -4 7 -20 7 -36 0 -15 4 -28 9 -28 5 0 13
-25 16 -55 4 -30 11 -58 16 -61 5 -3 9 -13 9 -23 0 -10 7 -32 15 -47 8 -16 15
-38 15 -49 0 -12 4 -25 8 -30 4 -6 16 -35 26 -65 20 -62 27 -79 50 -133 9 -21
16 -44 16 -52 0 -8 5 -15 10 -15 6 0 10 -6 10 -14 0 -7 7 -27 15 -42 8 -16 15
-37 15 -46 0 -10 4 -18 9 -18 5 0 12 -13 16 -30 4 -16 11 -32 16 -35 5 -4 9
-15 9 -26 0 -10 5 -19 10 -19 6 0 10 -4 10 -10 0 -17 34 -90 42 -90 5 0 8 -5
8 -11 0 -12 31 -81 39 -89 4 -3 22 -36 41 -75 19 -38 43 -78 53 -89 9 -11 17
-25 17 -32 0 -7 6 -19 12 -26 7 -7 22 -29 32 -48 11 -19 41 -68 68 -108 26
-40 48 -77 48 -83 0 -6 11 -20 25 -31 14 -11 25 -24 25 -29 0 -6 6 -17 13 -24
29 -33 37 -45 37 -55 0 -5 3 -10 8 -10 4 0 16 -16 26 -35 11 -19 23 -35 28
-35 5 0 11 -8 15 -17 3 -10 14 -27 24 -38 47 -53 179 -184 217 -215 24 -19 52
-42 62 -50 10 -8 31 -24 46 -35 16 -11 36 -28 46 -38 10 -9 22 -17 26 -17 5 0
22 -11 38 -25 16 -14 34 -25 41 -25 7 0 16 -8 22 -17 7 -14 12 -15 24 -4 13
10 15 9 10 -10 -4 -15 -3 -20 5 -15 7 4 12 2 12 -3 0 -6 4 -11 10 -11 5 0 7 8
3 18 -5 14 -3 13 10 -3 8 -11 13 -23 11 -27 -3 -5 2 -8 10 -8 9 0 15 -6 13
-12 -1 -7 8 -14 21 -16 17 -3 22 1 22 17 0 19 -10 25 -31 23 -4 -1 -4 9 -1 21
5 19 7 19 10 4 2 -12 11 -17 25 -15 12 1 23 -2 24 -7 0 -6 -3 -9 -8 -8 -5 2
-9 -6 -9 -16 0 -11 8 -22 18 -24 16 -4 16 -5 0 -6 -10 0 -18 -9 -18 -18 0 -15
2 -16 10 -3 8 12 10 12 10 -5 l1 -20 8 20 c7 20 6 87 -3 138 -2 15 0 27 7 27
17 0 -2 14 -25 17 -15 2 -18 0 -11 -9 11 -15 11 -48 1 -48 -39 0 -48 1 -48 10
0 6 7 10 16 10 8 0 12 5 9 10 -4 6 -11 7 -17 4 -7 -4 -8 -2 -4 5 4 6 12 9 17
6 5 -4 9 -1 9 4 0 17 -30 13 -36 -4 -8 -20 -53 -15 -65 7 -5 10 -7 18 -3 18 4
0 -3 11 -17 26 -16 17 -18 23 -7 19 9 -4 19 -13 22 -21 3 -7 12 -11 21 -8 8 3
15 1 15 -5 0 -6 5 -11 11 -11 5 0 7 6 3 13 -6 10 -4 10 7 0 15 -15 33 -17 25
-4 -3 5 5 11 19 13 14 3 23 1 22 -6 -1 -6 7 -11 18 -12 15 -1 16 0 2 3 -9 3
-15 9 -11 14 3 5 10 7 15 4 5 -4 9 -1 9 5 0 7 -13 10 -35 7 -19 -3 -38 0 -42
6 -4 6 2 8 15 5 12 -4 22 -2 22 4 0 5 4 7 8 4 5 -3 9 1 9 8 0 14 -8 15 -74 17
-24 1 -43 6 -43 11 0 5 10 9 23 8 59 -5 75 0 79 25 3 14 2 25 -3 25 -9 0 -6
27 6 37 4 4 5 2 1 -4 -5 -9 0 -13 13 -13 12 0 21 5 21 10 0 6 0 13 0 18 0 7
-7 8 -65 11 -14 0 -25 6 -25 12 0 7 10 9 25 7 14 -3 25 -1 25 3 0 5 -6 9 -12
9 -9 0 -8 3 2 9 15 10 33 4 26 -8 -3 -4 1 -8 9 -8 8 0 14 3 13 6 0 3 1 8 2 11
8 20 8 98 1 110 -9 13 -12 13 -23 1 -8 -9 -9 -11 -1 -7 6 3 14 2 17 -3 3 -5
-3 -11 -14 -14 -11 -3 -20 -11 -20 -17 0 -10 3 -10 14 -1 10 8 16 9 21 1 4 -6
2 -9 -3 -8 -6 2 -10 -1 -10 -7 0 -5 3 -9 7 -8 4 1 7 -8 6 -20 -1 -12 -6 -21
-11 -19 -5 2 -7 11 -6 20 3 14 2 14 -13 2 -20 -16 -48 -23 -39 -9 3 5 9 7 14
4 5 -3 11 -1 15 5 4 6 -8 10 -30 10 -22 0 -34 4 -30 10 7 12 -7 13 -21 3 -5
-5 -1 -1 8 9 22 20 23 32 2 24 -8 -3 -12 -2 -9 4 3 6 25 10 48 10 29 0 37 3
28 9 -8 5 -20 7 -28 4 -7 -3 -13 0 -13 6 0 6 9 11 20 11 12 0 20 7 20 18 0 14
-2 15 -10 2 -8 -13 -10 -12 -10 3 0 11 -5 15 -11 11 -7 -4 -10 -1 -7 7 2 7
-32 49 -76 93 -45 45 -97 101 -117 126 -20 25 -47 57 -60 71 -13 14 -33 38
-44 53 -20 27 -37 49 -76 94 -10 12 -19 25 -19 30 0 4 -16 25 -35 47 -19 22
-35 43 -35 46 0 3 -13 22 -30 40 -16 19 -30 40 -30 48 0 7 -11 22 -25 33 -14
11 -25 26 -25 34 0 8 -4 14 -9 14 -5 0 -13 10 -17 22 -3 12 -11 26 -16 32 -20
24 -108 166 -108 176 0 5 -4 10 -8 10 -4 0 -15 15 -24 33 -28 59 -73 142 -79
147 -3 3 -21 37 -39 75 -18 39 -36 72 -40 75 -4 3 -15 29 -25 58 -11 28 -22
52 -26 52 -4 0 -10 16 -13 35 -4 19 -11 35 -16 35 -6 0 -10 7 -10 15 0 8 -4
23 -10 33 -5 9 -16 34 -25 55 -8 20 -22 52 -30 71 -8 19 -15 43 -15 55 0 12
-4 21 -10 21 -5 0 -10 11 -10 24 0 14 -4 27 -9 30 -5 3 -12 22 -16 42 -3 20
-10 44 -15 53 -14 27 -40 122 -40 145 0 13 -3 26 -7 30 -11 11 -42 138 -43
174 0 17 -4 32 -8 32 -8 0 -29 128 -38 240 -3 36 -10 70 -16 77 -15 18 -22
538 -9 683 18 203 50 432 62 440 3 3 9 23 12 45 7 57 30 159 38 165 3 3 8 19
11 35 7 42 32 129 38 135 6 6 29 81 37 123 3 15 9 27 14 27 5 0 9 9 9 21 0 19
17 66 40 110 5 9 12 33 15 53 4 20 11 39 16 42 5 3 9 16 9 30 0 13 4 24 9 24
5 0 12 18 16 40 4 22 11 42 16 46 5 3 9 18 9 35 0 16 5 29 10 29 6 0 10 7 10
15 0 24 -12 17 -67 -41z m931 -4666 c3 -13 0 -27 -6 -33 -8 -7 -9 -6 -4 2 4 7
2 22 -4 33 -6 11 -7 20 -2 20 6 0 12 -10 16 -22z m66 -118 c0 -5 -8 -10 -17
-10 -15 0 -16 2 -3 10 19 12 20 12 20 0z m-62 -55 c-3 -3 -9 2 -12 12 -6 14
-5 15 5 6 7 -7 10 -15 7 -18z m17 -41 c10 3 24 1 31 -5 9 -7 14 -8 14 -1 0 6
8 9 18 8 9 -2 17 -11 17 -21 0 -10 -8 -19 -17 -21 -10 -1 -18 2 -18 7 0 6 -5
7 -12 3 -6 -4 -8 -3 -4 4 3 6 2 13 -4 17 -5 3 -10 -3 -10 -13 0 -15 -5 -19
-20 -15 -11 3 -18 9 -15 13 3 5 1 11 -5 15 -5 3 -10 12 -10 18 0 8 3 7 9 -2 5
-8 16 -11 26 -7z m-48 -110 c-3 -3 -12 -4 -19 -1 -8 3 -5 6 6 6 11 1 17 -2 13
-5z m86 -1 c-7 -2 -21 -2 -30 0 -10 3 -4 5 12 5 17 0 24 -2 18 -5z m50 0 c-7
-2 -19 -2 -25 0 -7 3 -2 5 12 5 14 0 19 -2 13 -5z m-57 -25 c-10 -6 -22 -6
-26 -2 -5 5 3 10 18 11 22 1 24 0 8 -9z m-91 -68 c-3 -5 -12 -10 -18 -10 -7 0
-6 4 3 10 19 12 23 12 15 0z m100 -30 c3 -5 -1 -10 -9 -10 -9 0 -16 5 -16 10
0 6 4 10 9 10 6 0 13 -4 16 -10z m60 -30 c3 -5 1 -10 -4 -10 -6 0 -11 5 -11
10 0 6 2 10 4 10 3 0 8 -4 11 -10z"/>
<path d="M3569 6245 c-2 -2 -81 -9 -174 -16 -94 -6 -172 -15 -175 -20 -3 -4
-26 -9 -50 -12 -25 -2 52 -4 171 -5 118 -1 219 -6 225 -11 5 -5 29 -12 54 -14
89 -11 180 -30 180 -39 0 -4 9 -8 21 -8 18 0 91 -20 144 -39 58 -21 138 -67
154 -87 11 -13 22 -24 26 -24 15 0 37 -32 29 -40 -5 -5 -183 -11 -399 -13
-378 -4 -505 -13 -505 -39 0 -4 -11 -8 -25 -8 -14 0 -25 -4 -25 -10 0 -5 -5
-10 -12 -10 -12 0 -139 -61 -148 -71 -3 -3 -20 -14 -37 -24 -18 -11 -33 -23
-33 -27 0 -4 -6 -8 -12 -8 -7 0 -27 -13 -44 -28 -69 -60 -82 -69 -112 -88 -18
-10 -32 -21 -32 -25 0 -3 -22 -21 -50 -40 -27 -19 -50 -37 -50 -41 0 -5 -6 -8
-14 -8 -8 0 -16 -3 -18 -8 -5 -11 -103 -72 -116 -72 -7 0 -12 -4 -12 -9 0 -5
-9 -11 -21 -14 -11 -3 -23 -15 -26 -26 -3 -12 -9 -21 -14 -21 -5 0 -9 -7 -9
-15 0 -18 6 -19 23 -4 30 26 168 119 177 119 6 0 10 4 10 9 0 5 8 11 18 15 9
3 35 17 57 31 22 14 51 31 65 38 14 6 27 14 30 17 12 13 70 40 84 40 9 0 16 3
16 8 0 4 21 15 48 26 26 10 61 24 79 32 17 8 38 14 46 14 9 0 19 5 22 10 3 6
19 10 35 10 16 0 31 4 34 9 4 5 30 12 59 16 28 4 57 11 62 15 12 9 69 16 257
31 121 10 145 9 217 -7 45 -10 81 -21 81 -24 0 -8 -90 -40 -112 -40 -10 0 -18
-3 -18 -7 0 -5 -21 -17 -48 -27 -26 -11 -51 -24 -57 -28 -5 -5 -35 -27 -65
-50 -66 -52 -67 -52 -110 -108 -19 -25 -37 -47 -40 -50 -3 -3 -14 -22 -25 -42
-11 -21 -22 -38 -25 -38 -3 0 -14 -25 -25 -55 -10 -30 -22 -55 -25 -55 -4 0
-11 -20 -14 -45 -4 -24 -11 -47 -17 -50 -5 -4 -9 -17 -9 -30 0 -13 -4 -27 -10
-30 -5 -3 -10 -23 -10 -43 0 -20 -5 -55 -11 -77 -24 -87 -33 -211 -33 -450 -1
-137 3 -252 7 -255 8 -5 20 14 53 85 11 22 22 42 25 45 3 3 9 17 13 33 3 15
14 37 24 48 9 11 27 32 39 47 12 14 25 23 29 19 4 -3 1 -46 -5 -94 -7 -48 -15
-113 -18 -143 -3 -30 -9 -59 -13 -65 -4 -5 -11 -58 -15 -118 -4 -59 -11 -110
-16 -113 -5 -3 -9 -34 -9 -70 0 -51 3 -64 16 -64 8 0 12 -4 9 -10 -3 -5 -2
-10 4 -10 5 0 12 4 16 10 3 5 12 7 20 4 8 -4 18 1 21 10 6 14 8 14 24 -4 12
-14 28 -20 48 -18 17 1 30 5 30 8 0 3 0 12 1 20 1 13 3 13 10 0 6 -8 7 -18 5
-22 -3 -4 3 -5 12 -1 11 4 15 3 11 -4 -4 -6 -3 -22 2 -35 6 -12 10 -17 10 -10
1 6 9 12 18 12 9 0 13 3 9 8 -4 4 -13 7 -19 7 -7 0 -12 9 -12 20 0 14 6 19 19
17 13 -3 17 1 13 12 -3 8 -2 18 3 21 6 4 10 -3 10 -14 0 -14 6 -21 19 -21 14
0 19 6 18 20 -1 12 -7 18 -14 16 -7 -3 -15 -1 -17 3 -8 13 -56 0 -56 -15 0 -7
-4 -15 -9 -18 -11 -7 -9 13 2 32 9 13 -5 17 -17 5 -3 -4 -13 -8 -21 -9 -11 -2
-12 2 -5 16 7 13 7 21 0 25 -14 9 -32 -4 -24 -17 4 -7 2 -8 -4 -4 -7 4 -12 2
-12 -5 0 -7 -3 -9 -7 -6 -3 4 2 16 11 26 14 16 27 18 73 15 41 -4 53 -2 47 7
-5 8 -3 9 7 3 39 -24 66 -6 37 25 -7 8 -1 6 15 -4 15 -9 27 -21 27 -26 0 -16
32 -10 46 9 13 16 14 16 7 -2 -4 -13 -3 -17 5 -12 7 4 12 1 12 -9 0 -10 -5
-13 -12 -9 -7 4 -8 3 -4 -4 15 -25 33 0 31 44 -2 47 -2 47 65 58 14 3 27 5 30
6 3 1 12 3 20 4 9 0 14 9 12 21 -2 16 -1 17 7 5 6 -9 6 -19 1 -26 -13 -15 -2
-24 27 -24 17 0 22 -4 17 -12 -4 -7 -3 -10 1 -5 5 4 16 0 25 -8 14 -13 19 -13
36 0 19 14 19 14 -2 11 -24 -5 -52 9 -41 20 4 4 -1 17 -10 28 -14 15 -14 18
-2 8 9 -6 19 -9 22 -5 4 3 7 -6 7 -21 0 -24 2 -26 21 -15 27 14 48 -9 24 -27
-8 -6 -11 -15 -7 -19 4 -5 -1 -5 -10 -2 -22 8 -28 -2 -17 -28 6 -16 8 -16 8
-3 1 11 8 15 26 13 26 -2 32 4 15 21 -6 6 2 10 23 10 31 0 33 -2 29 -30 -3
-20 -1 -27 7 -22 6 4 8 12 5 18 -4 6 1 17 10 23 15 12 15 13 -1 21 -10 4 -29
8 -43 9 -29 1 -35 30 -13 61 13 18 14 17 9 -9 -3 -15 -1 -25 4 -22 4 3 10 0
12 -5 2 -8 11 -8 28 0 23 9 23 10 3 6 -15 -3 -23 1 -23 9 0 14 36 9 46 -6 12
-20 33 -9 28 16 -4 23 -3 24 15 13 15 -9 25 -9 45 0 14 6 26 8 26 3 0 -5 -9
-11 -20 -14 -11 -3 -19 -11 -18 -19 2 -8 -6 -13 -19 -12 -13 1 -23 -3 -23 -7
0 -5 -5 -8 -11 -7 -6 2 -13 -5 -14 -14 -2 -11 3 -18 11 -18 9 0 12 5 8 11 -4
8 0 9 15 4 13 -4 21 -2 21 5 0 6 -5 8 -12 4 -7 -5 -8 -3 -3 6 6 10 12 7 25
-10 17 -22 61 -26 87 -7 9 7 9 3 0 -17 -8 -17 -13 -21 -15 -11 -2 8 -7 13 -12
10 -20 -12 2 -41 33 -42 26 -2 28 0 12 7 -18 8 -18 9 -2 9 10 1 16 5 13 10 -3
5 2 15 12 22 13 10 14 10 6 0 -22 -24 -5 -48 34 -49 27 -1 33 1 22 8 -13 9
-13 10 0 10 13 0 13 2 0 9 -15 10 -33 4 -26 -8 3 -4 -1 -8 -8 -8 -8 0 -12 6
-9 14 3 7 9 13 13 13 5 0 11 8 13 18 4 16 5 16 6 0 1 -25 17 -23 17 2 0 13 -7
20 -18 20 -10 0 -18 -6 -18 -12 0 -10 -2 -10 -9 0 -4 7 -12 12 -17 11 -17 -3
-34 1 -34 9 0 4 16 7 35 6 30 -2 35 1 35 21 0 13 4 26 8 29 5 3 8 -7 7 -22 -2
-15 0 -19 2 -10 2 9 12 22 21 30 13 11 14 11 7 -1 -6 -11 -3 -13 14 -8 12 3
28 -1 36 -10 9 -8 22 -12 31 -9 8 3 12 2 9 -4 -3 -6 -18 -10 -33 -11 l-27 -1
25 -8 c24 -8 24 -8 3 -9 -13 -1 -23 -6 -23 -12 0 -7 12 -10 29 -7 17 2 28 1
25 -3 -2 -4 0 -10 6 -14 5 -3 10 0 10 7 0 8 9 14 19 14 11 0 19 -5 18 -10 -1
-6 9 -10 23 -11 20 0 24 -5 22 -23 -2 -14 2 -22 11 -22 9 0 14 7 12 18 -1 9 3
23 9 31 9 12 8 13 -6 9 -9 -4 -23 1 -34 13 -17 19 -14 23 16 20 9 -1 26 8 38
19 17 16 22 17 22 6 0 -8 -8 -17 -17 -19 -10 -3 7 -5 37 -6 30 0 62 4 70 9 8
5 10 10 4 10 -6 0 -19 18 -30 40 -10 22 -22 40 -26 40 -5 0 -8 8 -8 18 0 9
-11 33 -24 52 -13 19 -27 46 -31 60 -4 14 -11 27 -14 30 -7 5 -22 36 -52 108
-8 17 -17 32 -21 32 -5 0 -8 7 -8 16 0 9 -6 30 -14 47 -23 51 -46 126 -46 152
0 13 -4 25 -9 27 -4 2 -11 20 -15 41 -6 30 -4 37 9 37 8 0 15 5 15 10 0 6 11
10 24 10 14 0 27 4 31 9 3 5 18 12 35 16 16 3 47 15 68 25 21 10 50 22 65 25
15 4 30 11 33 16 3 5 13 9 23 9 10 0 32 7 47 15 16 8 39 15 52 15 12 0 22 5
22 10 0 6 8 10 18 10 9 0 35 7 57 15 22 8 54 14 72 15 17 0 33 6 35 13 4 9 47
12 171 12 119 0 169 -4 178 -12 7 -7 19 -13 26 -13 37 0 143 -140 143 -188 0
-28 36 -9 54 28 11 22 23 40 28 40 4 0 8 9 8 20 0 11 4 20 10 20 5 0 12 23 16
50 4 28 10 50 15 50 11 0 4 155 -11 223 -6 31 -16 57 -21 57 -5 0 -9 9 -9 19
0 11 -4 22 -9 26 -5 3 -12 19 -16 35 -4 17 -11 30 -16 30 -5 0 -9 5 -9 11 0
33 -217 269 -247 269 -7 0 -13 4 -13 8 0 4 -15 16 -32 27 -18 10 -42 27 -52
37 -11 10 -23 18 -27 18 -4 0 -14 6 -21 13 -7 6 -29 21 -48 31 -19 11 -37 22
-40 25 -9 10 -44 31 -62 37 -10 4 -18 10 -18 15 0 5 -6 9 -14 9 -8 0 -21 6
-28 13 -7 6 -40 25 -73 42 -33 16 -61 33 -63 37 -2 4 -9 8 -15 8 -7 0 -39 14
-72 30 -33 16 -66 30 -72 30 -7 0 -13 5 -13 10 0 6 -11 10 -25 10 -14 0 -25 4
-25 8 0 4 -26 17 -57 27 -32 11 -69 25 -83 32 -14 7 -35 13 -47 13 -13 0 -23
5 -23 10 0 6 -8 10 -19 10 -10 0 -35 7 -54 15 -20 8 -50 15 -67 15 -16 0 -30
5 -30 10 0 6 -13 10 -28 10 -16 0 -51 7 -78 15 -27 8 -61 15 -77 15 -15 0 -35
4 -45 9 -29 16 -500 49 -513 36z m1089 -582 c17 -3 32 -9 32 -13 0 -4 22 -10
50 -14 27 -4 52 -11 55 -16 3 -6 15 -10 26 -10 10 0 19 -4 19 -10 0 -5 10 -10
22 -10 45 0 187 -110 202 -158 4 -12 12 -22 17 -22 5 0 9 -4 9 -10 0 -6 -40
-10 -100 -10 -60 0 -100 4 -100 10 0 6 -15 10 -32 10 -18 0 -46 7 -62 15 -15
8 -33 15 -38 15 -5 0 -16 6 -23 13 -8 6 -32 26 -54 42 -22 17 -43 37 -46 46
-3 8 -14 25 -25 37 -11 11 -23 40 -26 63 -7 41 -6 42 17 35 13 -5 39 -10 57
-13z m-396 -250 c54 -6 55 -23 2 -23 -19 0 -34 -4 -34 -9 0 -5 -18 -11 -40
-15 -22 -3 -40 -10 -40 -14 0 -4 -15 -13 -32 -21 -59 -26 -148 -137 -148 -186
0 -8 -4 -15 -9 -15 -11 0 -20 -58 -27 -191 -6 -107 3 -142 25 -100 6 11 17 25
24 33 7 7 21 32 31 56 11 23 22 42 26 42 19 0 33 -35 38 -95 2 -36 9 -68 13
-71 5 -3 9 -24 9 -47 0 -41 26 -182 36 -199 14 -21 24 -3 24 42 0 66 16 64 24
-2 17 -142 20 -198 13 -198 -15 0 -67 66 -94 120 -15 30 -31 57 -34 60 -3 3
-14 21 -25 40 -10 19 -22 37 -26 40 -4 3 -11 18 -17 33 -12 32 -31 36 -31 7 0
-11 -4 -20 -10 -20 -5 0 -10 -7 -10 -15 0 -8 -4 -15 -10 -15 -5 0 -10 7 -10
15 0 8 -4 15 -10 15 -5 0 -12 23 -16 50 -4 28 -10 50 -14 50 -22 0 -41 252
-20 265 6 3 10 17 10 31 0 30 47 134 61 134 5 0 9 6 9 14 0 29 135 150 198
177 17 8 32 18 32 23 0 4 8 5 18 1 9 -4 38 -10 64 -12z m-235 -1367 c0 -8 -6
-12 -15 -9 -11 5 -11 7 0 14 7 5 13 9 14 9 0 0 1 -6 1 -14z m331 -17 c-3 -8
-7 -3 -11 10 -4 17 -3 21 5 13 5 -5 8 -16 6 -23z m-71 1 c-3 -14 0 -20 11 -20
14 0 9 -14 -6 -16 -4 0 -15 -4 -24 -8 -10 -4 -23 -6 -30 -3 -7 3 -3 6 9 6 12
1 24 5 27 10 3 4 -6 7 -19 5 -14 -1 -25 2 -25 7 0 5 11 9 25 9 16 0 25 6 25
15 0 8 3 15 6 15 4 0 4 -9 1 -20z m20 -2 c-3 -8 -6 -5 -6 6 -1 11 2 17 5 13 3
-3 4 -12 1 -19z m260 15 c-4 -3 0 -15 10 -25 15 -17 14 -18 -18 -17 -32 1 -32
2 -9 9 17 5 19 8 8 9 -23 1 -24 31 -1 31 9 0 13 -3 10 -7z m78 -13 c-3 -5 -13
-6 -21 -3 -12 4 -13 8 -3 14 15 9 32 2 24 -11z m-388 4 c-3 -3 -12 -4 -19 -1
-8 3 -5 6 6 6 11 1 17 -2 13 -5z m-572 -33 c3 -5 2 -12 -3 -15 -5 -3 -9 1 -9
9 0 17 3 19 12 6z m69 -12 c-3 -5 -10 -7 -15 -3 -5 3 -7 10 -3 15 3 5 10 7 15
3 5 -3 7 -10 3 -15z m-318 -91 c3 -4 -6 -5 -20 -4 -18 2 -26 -2 -26 -12 0 -8
-3 -13 -6 -9 -4 3 -4 12 -1 20 5 14 41 17 53 5z m82 -30 c-3 -7 -15 -14 -29
-15 -14 -1 -17 0 -6 3 9 3 17 10 17 15 0 5 5 9 11 9 6 0 9 -6 7 -12z"/>
<path d="M1116 6148 c-3 -13 -8 -48 -11 -78 -3 -30 -10 -91 -15 -135 -11 -96
-38 -352 -51 -490 -26 -279 -26 -752 0 -925 22 -143 36 -219 44 -226 4 -4 7
-20 7 -35 0 -15 4 -30 9 -33 5 -3 12 -22 16 -42 3 -20 10 -44 15 -53 4 -9 16
-36 26 -61 10 -25 21 -47 24 -50 3 -3 14 -25 25 -50 11 -25 22 -47 26 -50 3
-3 9 -12 12 -20 4 -8 4 14 1 50 -4 36 -10 73 -15 82 -5 9 -9 30 -9 46 0 16 -3
32 -7 36 -5 4 -14 40 -21 79 -7 40 -17 96 -22 125 -21 114 -28 170 -29 229 -1
34 -5 65 -11 68 -12 8 -14 282 -1 289 4 3 11 53 15 112 4 59 11 115 16 125 6
10 10 38 10 63 0 24 4 56 9 69 5 13 14 118 21 233 15 281 0 503 -40 584 -4 9
-11 30 -15 48 -8 37 -23 42 -29 10z"/>
<path d="M7301 6129 c-7 -19 -17 -41 -21 -51 -5 -9 -12 -40 -16 -70 -4 -29
-11 -59 -17 -66 -13 -16 -12 -539 1 -555 5 -7 13 -64 17 -127 4 -63 11 -119
15 -125 4 -5 10 -35 13 -65 3 -30 11 -93 17 -140 13 -93 5 -447 -9 -464 -5 -6
-11 -36 -14 -66 -9 -90 -27 -204 -37 -225 -9 -22 -15 -51 -33 -162 -6 -40 -15
-73 -19 -73 -4 0 -8 -17 -8 -37 l0 -38 17 35 c10 19 20 37 23 40 10 9 68 134
81 175 7 22 16 45 20 50 4 6 10 31 14 58 4 26 11 50 16 53 5 3 9 21 9 40 0 19
4 34 9 34 5 0 12 44 16 98 4 53 12 102 17 109 14 17 13 730 -1 791 -6 26 -15
112 -21 192 -6 80 -15 181 -20 225 -5 44 -15 141 -23 215 -7 74 -18 146 -23
159 -10 24 -11 24 -23 -10z"/>
<path d="M410 6026 c0 -14 -4 -27 -9 -31 -5 -3 -13 -20 -17 -37 -3 -18 -10
-39 -14 -48 -5 -8 -16 -37 -25 -65 -19 -57 -26 -75 -49 -128 -9 -21 -16 -47
-16 -57 0 -11 -4 -20 -10 -20 -5 0 -10 -9 -10 -21 0 -12 -6 -35 -14 -52 -20
-44 -46 -125 -46 -142 0 -8 -4 -15 -10 -15 -5 0 -10 -13 -10 -29 0 -17 -4 -32
-9 -35 -5 -3 -12 -27 -16 -52 -4 -26 -10 -54 -15 -63 -15 -32 -30 -87 -36
-143 -4 -32 -10 -58 -14 -58 -8 0 -11 -19 -31 -257 -16 -193 -1 -396 46 -613
9 -41 18 -90 22 -107 3 -18 9 -33 13 -33 5 0 11 -22 15 -50 4 -27 11 -50 16
-50 5 0 9 -11 9 -24 0 -14 5 -28 10 -31 6 -3 10 -13 10 -22 0 -8 6 -29 14 -46
7 -18 21 -48 30 -69 9 -20 16 -41 16 -47 0 -6 3 -11 8 -11 4 0 16 -21 26 -48
11 -26 22 -49 25 -52 12 -10 41 -72 41 -86 0 -8 5 -14 10 -14 6 0 10 -7 10
-15 0 -8 4 -15 10 -15 5 0 12 -11 16 -25 3 -14 9 -25 13 -25 3 0 15 -17 26
-37 11 -21 22 -40 25 -43 3 -3 14 -18 24 -35 11 -16 23 -34 28 -40 4 -5 24
-30 44 -55 19 -25 41 -52 47 -60 7 -8 28 -35 47 -59 42 -53 240 -251 251 -251
4 0 20 -11 34 -25 17 -18 25 -21 25 -11 0 8 -4 17 -9 20 -5 4 -12 24 -16 46
-4 22 -11 40 -16 40 -5 0 -9 6 -9 14 0 7 -7 27 -15 42 -8 16 -15 39 -15 52 0
12 -4 22 -10 22 -5 0 -10 6 -10 14 0 7 -7 27 -15 42 -8 16 -15 36 -15 45 0 8
-4 19 -9 25 -4 5 -16 34 -27 64 -10 30 -22 59 -26 64 -4 6 -8 16 -8 24 0 13
-20 65 -40 103 -5 9 -12 33 -15 53 -4 20 -11 39 -16 42 -5 3 -9 16 -9 30 0 13
-4 24 -9 24 -5 0 -12 18 -16 40 -4 22 -11 42 -16 46 -5 3 -9 16 -9 29 0 13 -4
26 -9 30 -6 3 -13 26 -17 50 -3 25 -10 48 -15 51 -5 3 -9 16 -9 29 0 13 -4 27
-10 30 -5 3 -12 28 -16 55 -4 28 -10 50 -15 50 -5 0 -9 13 -9 29 0 17 -4 32
-9 35 -5 4 -12 29 -16 58 -4 29 -11 59 -16 68 -4 8 -13 42 -19 75 -7 33 -16
78 -21 100 -50 239 -62 337 -62 515 0 157 16 460 28 515 8 44 28 374 27 485 0
133 -11 220 -28 220 -8 0 -14 -10 -14 -24z"/>
<path d="M8004 5845 c2 -115 10 -384 17 -596 17 -544 -4 -891 -70 -1144 -6
-22 -16 -66 -23 -97 -7 -32 -16 -58 -20 -58 -4 0 -8 -11 -8 -25 0 -23 -21 -90
-39 -125 -5 -9 -12 -31 -16 -50 -4 -19 -11 -41 -15 -50 -11 -20 -34 -77 -50
-120 -6 -19 -16 -44 -20 -55 -27 -65 -42 -99 -55 -129 -8 -19 -15 -37 -15 -40
0 -3 -11 -30 -25 -60 -14 -30 -25 -62 -25 -70 0 -9 -3 -16 -8 -16 -4 0 -16
-27 -26 -60 -11 -33 -23 -60 -28 -60 -4 0 -8 -10 -8 -22 0 -13 -7 -36 -15 -52
-8 -15 -15 -35 -15 -42 0 -8 -4 -14 -10 -14 -5 0 -10 -9 -10 -20 0 -19 -21
-83 -43 -127 -12 -27 0 -45 14 -20 6 9 15 17 22 17 11 0 202 189 240 238 66
85 127 173 127 181 0 6 5 11 10 11 6 0 10 5 10 10 0 6 13 28 29 50 15 21 34
54 42 72 7 18 15 35 18 38 12 11 91 172 91 185 0 8 4 15 9 15 5 0 12 13 16 30
4 16 11 32 16 35 5 4 9 15 9 26 0 10 5 19 10 19 6 0 10 10 10 23 0 12 7 35 15
51 8 15 15 35 15 42 0 8 4 14 9 14 5 0 11 18 15 40 3 23 10 49 15 58 14 27 30
83 37 130 4 23 10 42 15 42 5 0 9 18 9 40 0 22 4 40 9 40 5 0 12 30 16 68 4
37 11 72 15 77 4 6 10 33 13 60 3 28 10 88 16 135 13 110 13 524 0 615 -6 39
-13 93 -16 120 -3 28 -9 55 -13 60 -4 6 -11 34 -15 62 -4 29 -11 55 -16 59 -5
3 -9 15 -9 27 0 26 -25 100 -64 189 -9 20 -16 43 -16 52 0 9 -4 16 -8 16 -4 0
-16 23 -27 50 -11 28 -23 50 -27 50 -4 0 -8 4 -8 10 0 10 -72 131 -91 153 -5
7 -16 21 -24 32 -13 18 -14 -4 -11 -190z"/>
<path d="M4425 3990 c2 -48 6 -66 17 -68 24 -5 31 39 7 45 -10 3 -16 9 -13 14
3 5 10 7 15 4 5 -4 9 -1 9 4 0 6 -8 11 -17 12 -15 0 -15 2 2 9 16 7 17 9 3 9
-9 1 -19 9 -21 19 -3 9 -4 -12 -2 -48z"/>
<path d="M4135 4011 c-3 -6 -12 -8 -18 -5 -8 5 -8 3 1 -7 9 -10 15 -10 24 -1
6 6 9 14 6 17 -3 4 -9 1 -13 -4z"/>
<path d="M3800 3995 c8 -9 8 -14 0 -17 -18 -6 0 -38 21 -38 27 0 24 18 -3 22
-22 3 -22 4 3 9 17 4 26 1 27 -8 1 -7 3 -19 4 -27 1 -8 11 -13 25 -11 13 1 26
-2 29 -7 3 -4 10 -6 15 -2 17 10 -1 23 -26 18 -17 -3 -27 2 -35 16 -6 11 -8
20 -4 20 3 0 1 7 -6 15 -10 12 -8 14 9 10 32 -6 41 -14 35 -30 -4 -8 -10 -12
-15 -9 -5 3 -9 1 -9 -5 0 -5 13 -8 30 -7 34 2 53 16 23 16 -15 0 -20 6 -19 23
1 20 -3 22 -57 23 -45 1 -55 -1 -47 -11z"/>
<path d="M4610 4005 c0 -10 29 -24 34 -17 3 6 -3 12 -14 15 -11 3 -20 4 -20 2z"/>
<path d="M4660 3990 c0 -5 3 -9 8 -9 23 4 33 -4 13 -10 -24 -6 -37 -36 -21
-46 5 -3 7 -13 4 -23 -5 -16 -5 -16 6 1 6 9 21 17 33 17 18 0 19 2 7 10 -11 7
-11 10 -2 10 7 0 10 5 7 10 -6 9 14 14 43 11 6 -1 12 7 12 19 0 25 -37 28 -43
3 -4 -17 -5 -17 -6 0 -1 12 -10 17 -31 17 -16 0 -30 -4 -30 -10z"/>
<path d="M4783 3973 c1 -24 4 -30 14 -22 9 8 11 5 8 -12 -3 -12 -9 -26 -15
-29 -6 -4 -10 -13 -8 -21 2 -10 -5 -13 -24 -11 -23 3 -28 -1 -28 -17 0 -12 4
-21 10 -21 5 0 7 7 4 15 -8 20 10 19 30 -1 15 -14 16 -13 17 8 1 13 1 26 1 29
-1 3 9 4 22 2 24 -5 32 -33 9 -33 -8 0 -11 -4 -8 -10 3 -5 1 -10 -6 -10 -7 0
-10 -3 -6 -6 3 -4 19 4 35 18 25 21 27 25 13 38 -8 8 -22 18 -30 22 -14 6 -13
7 2 7 25 1 21 26 -8 41 -13 7 -26 20 -29 29 -2 9 -4 2 -3 -16z"/>
<path d="M3954 3956 c1 -11 -3 -28 -8 -36 -10 -13 -9 -13 6 -1 10 7 15 18 11
24 -3 6 -1 7 6 3 6 -4 9 -11 6 -16 -3 -5 0 -12 6 -15 7 -5 9 4 7 26 -5 37 -36
52 -34 15z"/>
<path d="M4194 3953 c0 -10 -9 -19 -24 -23 -16 -4 -1 -7 38 -7 52 -1 63 2 60
14 -3 17 -48 29 -48 14 0 -5 10 -12 23 -14 22 -4 22 -4 -1 -6 -16 -1 -26 6
-29 19 -6 24 -21 27 -19 3z"/>
<path d="M4472 3946 c-1 -18 4 -26 21 -29 22 -4 22 -4 -3 -15 -23 -10 -24 -11
-4 -11 12 -1 24 6 28 14 4 10 20 15 53 16 36 0 43 3 28 9 -19 8 -19 9 -1 9 17
1 15 16 -2 16 -4 0 -13 4 -19 8 -7 5 -19 5 -25 0 -19 -11 -38 -12 -38 -2 0 5
-8 9 -18 9 -11 0 -18 -8 -20 -24z"/>
<path d="M3667 3946 c-4 -10 -23 -13 -70 -12 -43 1 -64 -3 -64 -11 0 -8 6 -9
18 -2 11 6 20 5 24 -1 4 -6 13 -7 23 -2 20 10 33 10 50 -1 7 -5 12 -4 12 3 0
6 4 9 8 6 4 -2 9 4 9 15 2 22 -3 25 -10 5z"/>
<path d="M4070 3950 c0 -5 5 -10 11 -10 5 0 7 5 4 10 -3 6 -8 10 -11 10 -2 0
-4 -4 -4 -10z"/>
<path d="M4120 3950 c0 -5 5 -10 11 -10 5 0 7 5 4 10 -3 6 -8 10 -11 10 -2 0
-4 -4 -4 -10z"/>
<path d="M4150 3949 c0 -5 10 -9 22 -9 12 0 18 3 14 7 -10 11 -36 12 -36 2z"/>
<path d="M4729 3943 c-1 -5 -1 -12 0 -16 1 -4 -6 -10 -14 -13 -22 -9 -18 -23
5 -21 12 1 18 7 16 14 -3 8 3 13 17 14 21 1 20 1 -3 8 l-25 8 25 5 c23 5 23 5
3 7 -13 0 -24 -2 -24 -6z"/>
<path d="M3698 3923 c6 -2 18 -2 25 0 6 3 1 5 -13 5 -14 0 -19 -2 -12 -5z"/>
<path d="M3808 3923 c6 -2 18 -2 25 0 6 3 1 5 -13 5 -14 0 -19 -2 -12 -5z"/>
<path d="M4075 3920 c3 -5 8 -10 11 -10 2 0 4 5 4 10 0 6 -5 10 -11 10 -5 0
-7 -4 -4 -10z"/>
<path d="M4125 3920 c3 -5 8 -10 11 -10 2 0 4 5 4 10 0 6 -5 10 -11 10 -5 0
-7 -4 -4 -10z"/>
<path d="M3770 3900 c-9 -6 -10 -10 -3 -10 6 0 15 5 18 10 8 12 4 12 -15 0z"/>
<path d="M3804 3898 c-3 -4 0 -8 5 -8 6 0 11 -8 12 -17 0 -13 3 -11 11 7 l11
25 8 -25 8 -25 -2 24 c-1 18 -8 25 -25 26 -13 1 -25 -2 -28 -7z"/>
<path d="M4300 3898 c0 -4 9 -8 20 -8 11 0 20 4 20 8 0 4 -9 8 -20 8 -11 0
-20 -4 -20 -8z"/>
<path d="M4390 3900 c-12 -8 -10 -10 8 -10 13 0 20 4 17 10 -7 12 -6 12 -25 0z"/>
<path d="M4430 3900 c0 -6 7 -10 15 -10 8 0 15 2 15 4 0 2 -7 6 -15 10 -8 3
-15 1 -15 -4z"/>
<path d="M4538 3899 c-8 -6 3 -9 30 -9 23 0 42 3 42 8 0 10 -56 11 -72 1z"/>
<path d="M4760 3901 c0 -6 4 -13 10 -16 6 -3 7 1 4 9 -7 18 -14 21 -14 7z"/>
<path d="M3670 3882 c0 -7 5 -10 10 -7 6 3 10 2 10 -2 0 -5 9 -9 20 -10 14 -1
20 4 20 18 0 15 -6 19 -30 17 -17 -1 -30 -8 -30 -16z"/>
<path d="M3886 3885 c-18 -13 -18 -14 3 -12 11 1 21 7 21 14 0 16 0 16 -24 -2z"/>
<path d="M3970 3879 c0 -11 4 -18 10 -14 5 3 7 12 3 20 -7 21 -13 19 -13 -6z"/>
<path d="M4022 3880 c0 -14 2 -19 5 -12 2 6 2 18 0 25 -3 6 -5 1 -5 -13z"/>
<path d="M4051 3884 c0 -11 3 -14 6 -6 3 7 2 16 -1 19 -3 4 -6 -2 -5 -13z"/>
<path d="M4120 3885 c0 -8 2 -15 4 -15 2 0 6 7 10 15 3 8 1 15 -4 15 -6 0 -10
-7 -10 -15z"/>
<path d="M4150 3883 c0 -11 3 -14 8 -7 4 6 14 14 22 17 10 4 8 6 -7 6 -16 1
-23 -5 -23 -16z"/>
<path d="M4232 3893 c9 -2 18 -12 20 -21 3 -13 5 -12 10 6 5 19 2 22 -20 21
-16 -1 -20 -3 -10 -6z"/>
<path d="M3920 3870 c0 -5 5 -10 11 -10 5 0 7 5 4 10 -3 6 -8 10 -11 10 -2 0
-4 -4 -4 -10z"/>
<path d="M4070 3869 c0 -5 5 -7 10 -4 6 3 10 8 10 11 0 2 -4 4 -10 4 -5 0 -10
-5 -10 -11z"/>
<path d="M4500 3876 c0 -2 9 -6 20 -9 11 -3 20 -1 20 4 0 5 -9 9 -20 9 -11 0
-20 -2 -20 -4z"/>
<path d="M4628 3873 c7 -3 16 -2 19 1 4 3 -2 6 -13 5 -11 0 -14 -3 -6 -6z"/>
<path d="M4668 3873 c6 -2 18 -2 25 0 6 3 1 5 -13 5 -14 0 -19 -2 -12 -5z"/>
<path d="M3395 3840 c2 -3 0 -12 -6 -20 -6 -10 -9 -11 -9 -2 0 6 -4 12 -10 12
-5 0 -10 -9 -10 -19 0 -14 6 -19 20 -18 12 1 20 8 20 19 0 10 5 18 11 18 6 0
9 -7 6 -15 -4 -8 -1 -17 5 -21 7 -5 9 2 6 19 -3 15 -2 24 3 22 4 -3 10 -1 14
4 3 6 -7 9 -24 8 -16 -1 -28 -4 -26 -7z"/>
<path d="M3808 3843 c7 -3 16 -2 19 1 4 3 -2 6 -13 5 -11 0 -14 -3 -6 -6z"/>
<path d="M4238 3843 c7 -3 16 -2 19 1 4 3 -2 6 -13 5 -11 0 -14 -3 -6 -6z"/>
<path d="M3342 3810 c0 -14 2 -19 5 -12 2 6 2 18 0 25 -3 6 -5 1 -5 -13z"/>
<path d="M3440 3810 c0 -13 7 -20 20 -20 11 0 23 0 27 -1 4 0 10 9 15 20 7 19
4 21 -27 21 -28 0 -35 -4 -35 -20z"/>
<path d="M3520 3814 c0 -11 6 -21 15 -21 17 0 28 24 15 32 -6 4 -10 0 -10 -7
0 -9 -3 -9 -10 2 -8 12 -10 11 -10 -6z"/>
<path d="M3620 3820 c0 -6 5 -8 10 -5 6 3 10 -1 10 -9 0 -9 4 -16 9 -16 5 0 8
8 7 18 -3 19 -36 30 -36 12z"/>
<path d="M3690 3820 c0 -5 5 -10 10 -10 6 0 10 5 10 10 0 6 -4 10 -10 10 -5 0
-10 -4 -10 -10z"/>
<path d="M3802 3810 c0 -14 2 -19 5 -12 2 6 2 18 0 25 -3 6 -5 1 -5 -13z"/>
<path d="M3766 3805 c-3 -8 -1 -15 4 -15 6 0 10 7 10 15 0 8 -2 15 -4 15 -2 0
-6 -7 -10 -15z"/>
<path d="M3871 3804 c0 -11 3 -14 6 -6 3 7 2 16 -1 19 -3 4 -6 -2 -5 -13z"/>
<path d="M4818 3813 c6 -2 18 -2 25 0 6 3 1 5 -13 5 -14 0 -19 -2 -12 -5z"/>
<path d="M4868 3793 c7 -3 16 -2 19 1 4 3 -2 6 -13 5 -11 0 -14 -3 -6 -6z"/>
<path d="M3370 3770 c-12 -7 -10 -9 7 -7 12 0 19 5 17 9 -6 10 -6 10 -24 -2z"/>
<path d="M3575 3770 c-3 -5 1 -10 10 -10 9 0 13 5 10 10 -3 6 -8 10 -10 10 -2
0 -7 -4 -10 -10z"/>
<path d="M3448 3763 c6 -2 18 -2 25 0 6 3 1 5 -13 5 -14 0 -19 -2 -12 -5z"/>
<path d="M3343 3733 c1 -14 8 -19 28 -19 23 0 25 2 16 18 -13 20 -27 24 -27 8
0 -5 5 -10 12 -10 6 0 8 -3 4 -7 -4 -5 -14 0 -21 11 -14 18 -14 18 -12 -1z"/>
<path d="M3428 3713 c7 -3 16 -2 19 1 4 3 -2 6 -13 5 -11 0 -14 -3 -6 -6z"/>
<path d="M3478 3713 c7 -3 16 -2 19 1 4 3 -2 6 -13 5 -11 0 -14 -3 -6 -6z"/>
<path d="M3348 3693 c7 -3 16 -2 19 1 4 3 -2 6 -13 5 -11 0 -14 -3 -6 -6z"/>
<path d="M3340 3670 c0 -6 14 -10 30 -10 39 0 39 14 0 17 -17 1 -30 -2 -30 -7z"/>
<path d="M130 3617 c0 -19 3 -37 8 -41 6 -7 14 -44 38 -183 4 -18 10 -33 14
-33 5 0 12 -25 15 -55 4 -30 11 -58 16 -61 5 -3 9 -16 9 -30 0 -13 4 -24 9
-24 5 0 12 -18 16 -40 4 -22 11 -40 16 -40 5 0 9 -8 9 -19 0 -10 7 -32 15 -47
8 -16 15 -37 15 -46 0 -10 5 -18 10 -18 6 0 10 -8 10 -18 0 -10 7 -27 15 -38
8 -10 15 -29 15 -41 0 -12 3 -23 8 -25 10 -4 42 -67 42 -84 0 -8 5 -14 10 -14
6 0 10 -6 10 -14 0 -8 6 -21 13 -28 6 -7 21 -31 32 -53 27 -53 135 -226 152
-243 7 -7 13 -19 13 -27 0 -7 3 -15 8 -17 4 -1 27 -30 52 -63 24 -33 52 -69
62 -79 10 -11 18 -23 18 -27 0 -4 14 -21 30 -37 17 -17 30 -33 30 -37 0 -4 15
-21 33 -38 17 -18 47 -51 65 -75 40 -50 118 -129 227 -227 42 -38 90 -82 105
-97 16 -16 31 -28 34 -28 3 0 18 -12 34 -28 16 -15 42 -36 58 -47 16 -11 42
-32 57 -47 16 -16 32 -28 37 -28 5 0 20 -11 34 -25 14 -14 29 -25 35 -25 5 0
16 -6 23 -13 7 -7 36 -28 63 -47 28 -19 52 -37 55 -40 8 -8 44 -30 65 -39 12
-5 27 -16 34 -25 7 -9 17 -16 22 -16 5 0 45 -22 89 -49 43 -27 88 -52 99 -56
12 -3 21 -11 21 -16 0 -5 9 -9 20 -9 11 0 20 -4 20 -10 0 -16 71 -24 93 -11
11 8 16 8 12 2 -6 -11 20 -15 84 -11 22 1 31 -2 27 -9 -4 -6 -1 -11 7 -11 10
0 14 12 13 43 0 28 -5 44 -13 44 -7 0 -10 -4 -8 -8 3 -4 1 -18 -4 -31 -9 -22
-10 -21 -10 9 -1 17 -7 34 -13 36 -10 4 -10 6 0 6 15 1 17 41 2 41 -6 0 -10
-8 -8 -17 2 -10 -3 -18 -12 -18 -8 -1 -14 -6 -12 -13 1 -7 -2 -12 -7 -12 -13
0 -22 16 -14 24 7 7 13 36 14 71 1 11 3 14 6 8 6 -16 29 -17 38 -2 4 6 0 9
-11 7 -11 -2 -18 2 -17 9 2 8 -4 10 -15 6 -16 -6 -16 -5 1 14 18 21 24 48 7
38 -6 -4 -8 -11 -5 -16 4 -5 2 -9 -3 -9 -5 0 -8 20 -7 45 0 26 -3 45 -9 45 -6
0 -4 5 4 10 13 8 12 10 -2 10 -23 0 -22 19 2 50 17 22 19 23 16 5 -1 -11 0
-31 4 -45 5 -17 7 -7 7 32 0 55 -1 57 -19 41 -10 -9 -18 -13 -18 -8 0 4 -6 3
-13 -4 -14 -11 -16 -58 -5 -77 4 -5 3 -16 -3 -24 -6 -11 -9 -11 -9 -2 0 8 -9
11 -25 8 -14 -3 -25 -1 -25 4 0 5 -12 5 -27 1 -30 -8 -53 -5 -53 9 0 4 16 6
35 4 19 -1 35 1 35 7 0 5 5 9 11 9 5 0 7 -4 4 -10 -3 -5 -1 -10 4 -10 6 0 11
6 11 13 0 8 4 7 10 -3 6 -10 10 -11 10 -2 0 6 0 15 0 19 0 4 -18 8 -41 10 -23
1 -44 5 -48 8 -3 4 16 5 42 4 55 -3 62 1 42 27 -10 13 -14 14 -12 4 2 -8 2
-12 0 -8 -7 11 -4 23 5 23 4 0 13 4 21 9 10 6 12 5 7 -2 -4 -7 -2 -12 3 -12 6
0 12 12 12 28 l1 27 8 -30 c8 -30 8 -30 9 8 1 23 -3 36 -9 32 -6 -3 -10 -1
-10 5 0 6 -23 9 -64 7 -60 -4 -63 -3 -53 15 15 23 28 24 21 1 -5 -17 -5 -17 9
-1 8 10 17 15 20 11 4 -3 7 -1 7 5 0 7 -13 12 -30 12 -23 0 -28 3 -23 17 5 13
2 15 -16 10 -14 -3 -24 0 -28 9 -3 8 -11 14 -19 14 -8 0 -14 5 -14 10 0 6 -9
10 -20 10 -11 0 -23 7 -26 15 -4 9 -11 14 -18 13 -6 -1 -24 6 -41 17 -29 19
-40 28 -94 74 -13 12 -27 21 -30 21 -3 0 -22 14 -41 30 -19 17 -43 33 -52 36
-10 3 -18 10 -18 15 0 5 -5 9 -11 9 -6 0 -28 14 -48 30 -55 46 -60 50 -66 50
-4 0 -12 6 -20 13 -7 6 -25 21 -41 32 -15 11 -41 32 -58 48 -17 15 -33 27 -37
27 -4 0 -20 12 -37 28 -28 26 -47 42 -122 104 -162 136 -534 508 -597 598 -10
14 -29 36 -43 50 -14 14 -36 42 -50 63 -14 20 -28 37 -32 37 -5 0 -8 5 -8 11
0 6 -14 28 -30 48 -48 56 -50 60 -50 70 0 5 -4 11 -9 13 -12 4 -121 188 -121
205 0 7 -4 13 -10 13 -5 0 -10 7 -10 15 0 8 -4 15 -10 15 -5 0 -10 5 -10 11 0
6 -14 41 -31 78 -35 77 -45 99 -53 124 -9 29 -26 19 -26 -16z m1919 -2021 c1
-5 -5 -3 -13 4 -8 6 -12 19 -9 27 6 14 8 14 14 -3 4 -10 8 -23 8 -28z m-2 -48
c-3 -7 -5 -2 -5 12 0 14 2 19 5 13 2 -7 2 -19 0 -25z m68 -28 c10 -11 15 -20
10 -20 -4 0 -13 7 -20 17 -8 10 -17 13 -26 7 -22 -14 -47 -15 -55 -2 -4 6 -3
8 4 5 5 -4 21 -3 34 2 32 13 33 13 53 -9z m76 -33 c-10 -9 -11 -8 -5 6 3 10 9
15 12 12 3 -3 0 -11 -7 -18z m12 -87 c3 -10 2 -19 -2 -18 -21 2 -29 -5 -24
-24 4 -22 3 -22 -11 2 -14 23 -15 23 -17 5 -1 -17 -2 -17 -6 -2 -2 9 -8 15
-12 13 -4 -3 -13 -1 -21 5 -11 6 -4 9 25 10 22 1 43 1 48 0 4 0 7 6 7 14 0 21
7 19 13 -5z m-113 -27 c0 -15 -2 -16 -10 -3 -8 12 -10 12 -10 1 0 -8 -3 -12
-6 -8 -8 7 4 27 17 27 5 0 9 -8 9 -17z m115 -47 c2 -17 -3 -26 -16 -29 -10 -3
-19 -11 -19 -17 0 -10 3 -10 14 -1 10 8 16 9 21 1 4 -6 3 -9 -2 -8 -4 2 -9 -1
-9 -7 -1 -5 1 -9 5 -8 4 1 7 -8 6 -20 -1 -12 -6 -20 -11 -17 -5 3 -7 12 -5 20
2 11 -3 10 -20 -5 -18 -15 -20 -15 -10 -2 12 15 10 17 -21 17 -24 0 -35 5 -35
15 0 17 28 20 43 5 6 -6 10 -3 11 10 1 11 -2 18 -7 15 -5 -3 -11 -1 -15 5 -3
6 4 10 17 10 17 0 20 2 9 9 -8 5 -20 7 -28 4 -7 -3 -13 0 -13 7 0 9 10 11 30
6 22 -4 32 -1 37 10 7 19 15 11 18 -20z m-95 4 c0 -5 -4 -10 -10 -10 -5 0 -10
5 -10 10 0 6 5 10 10 10 6 0 10 -4 10 -10z m-46 -28 c3 -5 -1 -9 -9 -9 -8 0
-12 4 -9 9 3 4 7 8 9 8 2 0 6 -4 9 -8z m46 4 c0 -2 -7 -7 -16 -10 -8 -3 -12
-2 -9 4 6 10 25 14 25 6z m-26 -47 c-3 -5 -10 -7 -15 -3 -5 3 -7 10 -3 15 3 5
10 7 15 3 5 -3 7 -10 3 -15z m36 -29 c0 -5 -8 -10 -17 -10 -15 0 -16 2 -3 10
19 12 20 12 20 0z m111 -49 c1 8 1 19 0 24 -1 6 5 3 15 -7 16 -16 11 -44 -7
-33 -5 4 -9 -1 -9 -9 0 -9 -4 -16 -10 -16 -5 0 -9 6 -7 13 1 7 -7 12 -20 11
-19 -1 -21 2 -12 17 5 11 6 19 2 18 -4 -1 -15 -1 -23 0 -13 1 -13 2 0 11 11 7
22 2 42 -17 20 -19 28 -22 29 -12z m-71 -1 c0 -5 -9 -10 -20 -10 -11 0 -20 5
-20 10 0 6 9 10 20 10 11 0 20 -4 20 -10z"/>
<path d="M8268 3609 c-10 -17 -18 -37 -18 -45 0 -8 -4 -14 -10 -14 -5 0 -10
-7 -10 -15 0 -14 -30 -85 -40 -95 -3 -3 -12 -19 -21 -35 -44 -84 -151 -259
-161 -263 -4 -2 -8 -8 -8 -13 0 -6 -19 -35 -42 -66 -24 -30 -50 -65 -58 -77
-8 -11 -23 -28 -32 -37 -10 -9 -18 -20 -18 -24 0 -9 -16 -27 -221 -260 -63
-70 -212 -218 -277 -273 -31 -26 -73 -63 -93 -82 -58 -56 -102 -94 -131 -113
-15 -9 -40 -29 -56 -45 -16 -15 -50 -43 -76 -62 -25 -19 -56 -43 -68 -52 -11
-10 -24 -18 -28 -18 -3 0 -15 -8 -26 -19 -11 -10 -40 -31 -65 -46 -24 -15 -48
-34 -52 -41 -4 -8 -16 -14 -25 -14 -9 0 -23 -9 -30 -20 -7 -11 -19 -20 -26
-20 -8 0 -16 -8 -18 -17 -2 -10 -12 -18 -23 -18 -11 0 -21 -7 -21 -15 -1 -8
-2 -22 -3 -30 -1 -17 -51 -26 -51 -9 0 5 -4 7 -10 4 -5 -3 -10 -11 -10 -16 0
-6 5 -7 10 -4 6 3 10 1 10 -5 0 -6 4 -9 9 -5 18 10 21 -13 4 -26 -14 -12 -16
-12 -8 1 5 9 5 12 -1 7 -5 -5 -9 -13 -9 -18 0 -5 -4 -9 -10 -9 -5 0 -10 4 -10
9 0 5 -3 13 -7 16 -4 4 -5 -4 -2 -18 3 -20 -1 -29 -18 -37 -21 -10 -21 -10 -5
3 22 19 22 26 -3 24 -15 -1 -19 -7 -15 -25 4 -27 15 -43 15 -24 0 7 5 12 10
12 6 0 10 -7 10 -15 0 -13 -11 -19 -32 -17 -3 1 -9 -5 -12 -13 -5 -15 17 -11
41 7 7 5 13 4 16 -4 2 -7 3 4 2 25 -3 26 1 37 10 37 9 0 13 -11 10 -34 -3 -40
8 -65 21 -45 4 7 3 14 -4 17 -6 2 -9 9 -6 17 9 21 47 2 49 -24 1 -12 -3 -25
-8 -28 -6 -3 -7 -1 -3 5 4 7 1 12 -8 12 -8 0 -17 -4 -21 -10 -4 -6 -15 -6 -30
0 -23 9 -25 7 -25 -21 0 -17 4 -28 10 -24 5 3 7 12 3 20 -3 9 1 15 10 15 9 0
15 -10 15 -25 0 -26 -11 -30 -67 -25 -13 1 -21 -3 -17 -8 6 -10 92 -9 102 1 4
4 1 13 -5 21 -8 9 -8 16 -2 20 13 8 18 -3 17 -39 -1 -18 -6 -29 -13 -27 -7 1
-13 -2 -13 -8 0 -14 -27 -12 -33 3 -3 6 -6 2 -6 -10 -1 -15 4 -20 17 -18 9 1
11 0 5 -2 -7 -3 -13 -9 -13 -14 0 -6 4 -8 9 -5 4 3 15 -2 23 -12 12 -15 11
-22 -8 -59 -16 -31 -24 -39 -28 -27 -8 22 -8 26 3 19 5 -3 13 4 16 16 5 13 2
25 -6 30 -16 10 -32 1 -23 -13 4 -6 1 -14 -7 -18 -9 -6 -10 -12 -3 -22 6 -7
11 -23 12 -36 1 -18 -2 -21 -11 -13 -14 11 -31 3 -35 -17 -1 -8 2 -11 9 -6 7
4 10 1 7 -7 -3 -8 -22 -15 -46 -17 -41 -3 -55 -15 -29 -25 9 -4 8 -8 -3 -16
-12 -9 -11 -11 8 -11 16 0 22 5 20 16 -2 11 5 18 22 21 14 2 26 8 28 13 2 5
11 6 20 3 15 -4 15 -3 2 6 -13 10 -13 12 0 20 9 6 19 6 27 -1 9 -7 17 -5 28 6
9 9 23 16 31 16 8 0 14 4 14 9 0 5 12 12 26 15 16 4 24 12 21 20 -4 10 0 12
14 9 10 -3 19 -1 19 5 0 6 10 14 23 18 12 4 24 10 27 13 3 4 30 22 60 41 30
19 64 43 74 52 11 10 23 18 27 18 4 0 25 15 46 33 22 17 52 41 67 52 27 19 49
37 92 74 12 10 28 22 37 27 14 8 41 33 177 157 112 103 170 159 170 164 0 3
15 22 34 42 19 20 55 57 80 84 25 26 54 60 63 75 18 26 35 47 81 98 12 14 22
29 22 34 0 5 11 20 25 34 14 14 25 29 25 35 0 5 6 16 13 23 8 7 33 45 57 83
24 39 47 72 50 75 3 3 14 23 25 45 11 22 22 42 25 45 3 3 14 24 25 47 11 24
23 43 28 43 4 0 7 5 7 12 0 10 34 89 66 151 8 16 14 35 14 43 0 8 3 14 8 14 4
0 16 28 26 63 10 34 22 67 26 72 4 6 11 29 15 52 4 24 11 45 16 49 5 3 9 18 9
34 0 16 4 31 9 35 5 3 13 34 16 70 4 36 11 65 15 65 4 0 10 26 14 58 3 31 9
76 12 100 7 50 -4 54 -28 11z m-1608 -1834 c0 -2 -7 -5 -15 -9 -9 -3 -15 0
-15 9 0 9 6 12 15 9 8 -4 15 -7 15 -9z m10 -29 c0 -2 -8 -10 -17 -17 -16 -13
-17 -12 -4 4 13 16 21 21 21 13z m-27 -61 c4 -8 2 -17 -4 -20 -5 -4 -8 -1 -7
6 2 8 -8 13 -29 14 -17 0 -29 -3 -27 -7 2 -4 1 -9 -4 -12 -4 -2 -9 4 -9 15 -2
16 5 19 37 19 24 0 40 -5 43 -15z m15 -66 c-3 -8 -7 -3 -11 10 -4 17 -3 21 5
13 5 -5 8 -16 6 -23z m32 -49 c0 -5 -2 -10 -4 -10 -3 0 -8 5 -11 10 -3 6 -1
10 4 10 6 0 11 -4 11 -10z m-46 -66 c5 -14 4 -15 -9 -4 -17 14 -19 20 -6 20 5
0 12 -7 15 -16z m-57 -46 c2 -17 0 -19 -7 -8 -5 8 -6 18 -4 22 8 12 10 10 11
-14z m3 -88 c0 -5 -8 -10 -17 -10 -15 0 -16 2 -3 10 19 12 20 12 20 0z"/>
<path d="M6203 2990 c3 -13 -1 -21 -14 -25 -22 -7 -26 -32 -4 -32 8 0 12 4 9
9 -3 4 1 8 8 8 8 0 14 12 14 30 1 17 -3 30 -8 30 -6 0 -8 -9 -5 -20z"/>
<path d="M6206 2921 c-13 -15 -14 -20 -4 -24 10 -4 10 -6 1 -6 -16 -1 -17 -41
-2 -41 5 0 7 5 4 10 -4 6 -1 17 5 25 7 8 9 15 6 15 -4 0 -2 9 4 20 13 25 8 26
-14 1z"/>
<path d="M2346 2902 c-3 -6 -1 -14 5 -17 14 -9 20 -2 10 14 -6 8 -11 9 -15 3z"/>
<path d="M6193 2802 c1 -14 5 -18 11 -12 7 7 6 14 -1 21 -9 9 -12 7 -10 -9z"/>
<path d="M6215 2752 c-22 -19 -32 -52 -15 -52 6 0 9 4 6 9 -8 12 29 52 39 43
5 -4 5 -1 1 6 -9 15 -7 15 -31 -6z"/>
<path d="M6249 2739 c-11 -6 -11 -9 1 -13 24 -7 51 -3 47 7 -4 14 -31 17 -48
6z"/>
<path d="M2345 2730 c-3 -6 1 -7 9 -4 18 7 21 14 7 14 -6 0 -13 -4 -16 -10z"/>
<path d="M2488 2733 c7 -3 16 -2 19 1 4 3 -2 6 -13 5 -11 0 -14 -3 -6 -6z"/>
<path d="M2343 2701 c-13 -11 -23 -21 -23 -24 0 -5 113 2 119 8 2 3 -7 5 -21
5 -15 0 -29 6 -31 13 -4 10 -6 10 -6 0 -1 -7 -5 -13 -11 -13 -5 0 -7 7 -4 15
8 19 4 19 -23 -4z"/>
<path d="M6240 2708 c0 -4 14 -8 32 -8 17 0 28 3 25 7 -10 9 -57 10 -57 1z"/>
<path d="M2250 2688 c0 -18 2 -19 17 -7 14 12 16 12 8 0 -6 -11 -4 -13 9 -8
11 5 15 3 10 -5 -4 -7 -3 -8 4 -4 7 4 12 17 12 29 0 18 -2 19 -10 7 -5 -8 -10
-10 -10 -5 0 6 -9 11 -20 12 -14 1 -20 -4 -20 -19z"/>
<path d="M2281 2636 c0 -12 3 -15 6 -8 4 10 10 7 21 -10 9 -13 17 -27 17 -33
0 -5 10 -11 23 -13 12 -2 22 2 22 8 0 7 -8 9 -20 5 -15 -5 -18 -3 -14 9 3 9 1
16 -5 16 -6 0 -11 5 -11 11 0 5 5 7 12 3 7 -4 8 -3 4 5 -4 6 -13 8 -19 4 -9
-5 -9 -3 0 8 10 13 8 15 -12 15 -19 0 -25 -5 -24 -20z"/>
<path d="M2350 2639 c0 -11 5 -17 10 -14 6 3 10 13 10 21 0 8 -4 14 -10 14 -5
0 -10 -9 -10 -21z"/>
<path d="M2446 2645 c4 -8 8 -15 10 -15 2 0 4 7 4 15 0 8 -4 15 -10 15 -5 0
-7 -7 -4 -15z"/>
<path d="M2281 2548 c-1 -10 6 -18 14 -18 8 0 15 8 15 18 0 13 -2 14 -9 3 -7
-11 -9 -11 -14 0 -4 10 -6 9 -6 -3z"/>
<path d="M2350 2550 c0 -5 -7 -10 -16 -10 -8 0 -13 -4 -9 -10 3 -5 12 -7 20
-4 16 7 28 34 15 34 -6 0 -10 -4 -10 -10z"/>
<path d="M2350 2510 c0 -5 5 -10 11 -10 5 0 7 5 4 10 -3 6 -8 10 -11 10 -2 0
-4 -4 -4 -10z"/>
<path d="M6319 2501 c9 -6 10 -11 3 -15 -6 -4 -9 -13 -6 -21 4 -8 10 -13 15
-10 4 3 6 12 2 20 -3 10 1 15 13 16 18 0 17 1 -1 9 -26 11 -44 12 -26 1z"/>
<path d="M6474 2433 c11 -11 48 -14 41 -3 -3 5 -16 10 -27 10 -12 0 -18 -3
-14 -7z"/>
<path d="M2226 2420 c-1 -3 -2 -12 -1 -20 1 -8 3 -22 3 -30 3 -24 42 -23 42 1
0 10 -4 19 -10 19 -5 0 -10 -6 -10 -12 0 -9 -3 -8 -9 2 -12 18 -5 31 13 24 7
-3 13 2 13 10 0 13 -35 19 -41 6z"/>
<path d="M2277 2411 c-2 -10 0 -25 5 -32 7 -11 8 -9 6 6 -2 12 2 19 10 18 6
-2 12 4 12 12 0 22 -27 18 -33 -4z"/>
<path d="M2301 2364 c0 -11 3 -14 6 -6 3 7 2 16 -1 19 -3 4 -6 -2 -5 -13z"/>
<path d="M6370 2369 c0 -5 5 -7 10 -4 6 3 10 8 10 11 0 2 -4 4 -10 4 -5 0 -10
-5 -10 -11z"/>
<path d="M6450 2374 c0 -2 9 -8 20 -14 11 -6 20 -7 20 -2 0 6 -9 12 -20 15
-11 3 -20 3 -20 1z"/>
<path d="M2333 2353 c9 -2 23 -2 30 0 6 3 -1 5 -18 5 -16 0 -22 -2 -12 -5z"/>
<path d="M6353 2344 c0 -7 5 -10 10 -7 5 3 13 -1 18 -8 7 -11 9 -11 9 2 0 9
-8 19 -18 21 -11 3 -19 0 -19 -8z"/>
<path d="M6426 2335 c-3 -8 -1 -15 4 -15 6 0 10 7 10 15 0 8 -2 15 -4 15 -2 0
-6 -7 -10 -15z"/>
<path d="M2282 2320 c0 -14 2 -19 5 -12 2 6 2 18 0 25 -3 6 -5 1 -5 -13z"/>
<path d="M6375 2300 c3 -5 8 -10 11 -10 2 0 4 5 4 10 0 6 -5 10 -11 10 -5 0
-7 -4 -4 -10z"/>
<path d="M2301 2264 c0 -11 3 -14 6 -6 3 7 2 16 -1 19 -3 4 -6 -2 -5 -13z"/>
<path d="M6490 2240 c0 -9 8 -16 20 -16 12 0 20 7 20 16 0 9 -8 16 -20 16 -12
0 -20 -7 -20 -16z"/>
<path d="M6376 2231 c-3 -5 0 -11 8 -14 15 -6 26 1 26 15 0 11 -27 10 -34 -1z"/>
<path d="M6450 2230 c0 -5 7 -7 15 -4 8 4 15 8 15 10 0 2 -7 4 -15 4 -8 0 -15
-4 -15 -10z"/>
<path d="M2120 2199 c0 -5 6 -9 13 -9 8 0 7 -3 -3 -10 -12 -7 -11 -9 6 -8 26
2 29 33 3 35 -10 1 -19 -2 -19 -8z"/>
<path d="M2255 2180 c-3 -5 -1 -10 4 -10 6 0 11 5 11 10 0 6 -2 10 -4 10 -3 0
-8 -4 -11 -10z"/>
<path d="M6375 2160 c-3 -5 -1 -10 4 -10 6 0 11 5 11 10 0 6 -2 10 -4 10 -3 0
-8 -4 -11 -10z"/>
<path d="M6459 2133 c-13 -16 -12 -17 4 -4 16 13 21 21 13 21 -2 0 -10 -8 -17
-17z"/>
<path d="M2225 2121 c-3 -5 -2 -12 3 -15 5 -3 9 1 9 9 0 17 -3 19 -12 6z"/>
<path d="M6486 2121 c-4 -5 -2 -12 3 -15 5 -4 12 -2 15 3 4 5 2 12 -3 15 -5 4
-12 2 -15 -3z"/>
<path d="M6523 2112 c-2 -26 -11 -71 -16 -79 -2 -5 2 -21 10 -38 l13 -30 -6
35 -6 35 22 -23 c18 -19 24 -21 31 -11 9 15 7 20 -13 23 -36 5 -43 36 -14 59
8 6 7 10 -2 14 -6 2 -10 9 -7 13 3 5 2 11 -3 14 -4 2 -8 -3 -9 -12z"/>
<path d="M6555 2121 c-3 -5 -1 -12 5 -16 5 -3 10 1 10 9 0 18 -6 21 -15 7z"/>
<path d="M2232 2060 c0 -14 2 -19 5 -12 2 6 2 18 0 25 -3 6 -5 1 -5 -13z"/>
<path d="M6491 2064 c0 -11 3 -14 6 -6 3 7 2 16 -1 19 -3 4 -6 -2 -5 -13z"/>
<path d="M2183 2010 c-1 -11 2 -18 7 -15 5 3 11 -3 14 -12 3 -10 4 -6 2 9 -2
15 2 29 8 32 6 2 2 5 -9 5 -14 1 -21 -6 -22 -19z"/>
<path d="M6423 2003 c0 -7 4 -13 8 -13 4 0 9 6 12 13 3 8 0 14 -7 14 -7 0 -13
-6 -13 -14z"/>
<path d="M6487 1946 c-3 -8 -2 -18 3 -21 13 -8 20 9 11 24 -6 10 -10 9 -14 -3z"/>
<path d="M6523 1935 c0 -8 4 -12 9 -9 5 3 6 10 3 15 -9 13 -12 11 -12 -6z"/>
<path d="M6480 1890 c-12 -8 -12 -10 3 -16 21 -8 35 2 21 16 -5 5 -15 6 -24 0z"/>
<path d="M2073 1857 c-2 -17 0 -19 7 -7 7 10 10 11 10 3 0 -18 17 -16 24 3 3
9 2 12 -5 9 -5 -4 -15 -2 -22 4 -10 7 -13 4 -14 -12z"/>
<path d="M6588 1793 c7 -3 16 -2 19 1 4 3 -2 6 -13 5 -11 0 -14 -3 -6 -6z"/>
<path d="M2231 1734 c0 -11 3 -14 6 -6 3 7 2 16 -1 19 -3 4 -6 -2 -5 -13z"/>
<path d="M6480 1720 c-12 -7 -10 -9 7 -7 12 0 19 5 17 9 -6 10 -6 10 -24 -2z"/>
<path d="M2231 1684 c0 -11 3 -14 6 -6 3 7 2 16 -1 19 -3 4 -6 -2 -5 -13z"/>
<path d="M2227 1629 c-3 -12 -2 -31 3 -42 6 -17 8 -13 8 21 0 47 -3 52 -11 21z"/>
<path d="M6489 1596 c-5 -23 -2 -46 5 -48 12 -4 15 41 4 48 -4 3 -8 3 -9 0z"/>
<path d="M2250 1561 c0 -25 6 -27 13 -6 4 8 2 17 -3 20 -6 4 -10 -3 -10 -14z"/>
<path d="M6408 1563 c6 -2 18 -2 25 0 6 3 1 5 -13 5 -14 0 -19 -2 -12 -5z"/>
<path d="M6470 1482 c0 -15 28 -23 36 -9 4 7 4 9 -1 5 -4 -4 -14 -3 -22 3 -8
7 -13 8 -13 1z"/>
<path d="M6475 1450 c3 -5 -2 -10 -12 -11 -14 0 -14 -2 5 -9 12 -5 22 -17 22
-27 0 -12 5 -9 15 11 18 34 19 46 4 46 -6 0 -9 -6 -6 -13 3 -8 -1 -14 -8 -14
-7 0 -11 6 -8 14 3 7 0 13 -7 13 -6 0 -8 -4 -5 -10z"/>
<path d="M6536 1431 c-3 -5 3 -11 15 -14 16 -4 18 -3 8 9 -13 16 -16 17 -23 5z"/>
<path d="M2232 1410 c0 -14 2 -19 5 -12 2 6 2 18 0 25 -3 6 -5 1 -5 -13z"/>
<path d="M6375 1420 c-3 -5 -1 -10 4 -10 6 0 11 5 11 10 0 6 -2 10 -4 10 -3 0
-8 -4 -11 -10z"/>
<path d="M6430 1388 c0 -7 23 -12 43 -9 13 2 8 -11 -10 -26 -16 -13 -16 -13 5
-3 23 11 25 37 3 33 -6 -2 -11 1 -11 5 0 5 -7 9 -15 9 -8 0 -15 -4 -15 -9z"/>
<path d="M2250 1360 c0 -11 5 -20 10 -20 6 0 10 9 10 20 0 11 -4 20 -10 20 -5
0 -10 -9 -10 -20z"/>
<path d="M2281 1354 c0 -11 3 -14 6 -6 3 7 2 16 -1 19 -3 4 -6 -2 -5 -13z"/>
<path d="M6410 1319 c-11 -7 -5 -9 23 -6 21 3 41 8 44 11 11 10 -51 6 -67 -5z"/>
<path d="M2259 1311 c7 -5 17 -15 22 -22 6 -10 8 -8 7 7 -1 12 -10 21 -22 22
-15 1 -17 -1 -7 -7z"/>
<path d="M2232 1247 c-1 -19 -1 -19 14 -1 14 18 14 18 30 -1 13 -15 15 -16 11
-3 -4 11 0 18 11 21 9 2 -1 4 -24 3 -32 0 -40 -4 -42 -19z"/>
<path d="M2175 1110 c-3 -5 4 -14 16 -21 19 -10 21 -9 16 5 -4 9 -2 16 2 16 5
0 14 -12 20 -27 l11 -28 -4 27 c-1 15 0 26 3 23 4 -2 12 0 19 4 6 4 -9 7 -33
8 -25 1 -47 -2 -50 -7z"/>
<path d="M2328 1113 c6 -2 18 -2 25 0 6 3 1 5 -13 5 -14 0 -19 -2 -12 -5z"/>
<path d="M2250 1081 c0 -11 3 -21 8 -22 4 0 15 -2 24 -4 10 -2 20 1 24 6 3 5
10 7 15 4 5 -4 9 1 9 10 0 9 -4 13 -10 10 -5 -3 -10 -1 -10 4 0 6 -9 11 -21
11 -13 0 -18 -4 -13 -12 5 -9 2 -9 -9 1 -15 12 -17 11 -17 -8z m47 -13 c-3 -8
-6 -5 -6 6 -1 11 2 17 5 13 3 -3 4 -12 1 -19z"/>
<path d="M2347 1085 c-4 -8 -2 -17 3 -20 6 -4 10 3 10 14 0 25 -6 27 -13 6z"/>
<path d="M2356 1042 c-4 -7 -2 -12 6 -12 9 0 9 -3 -2 -10 -12 -7 -11 -9 6 -8
11 1 21 8 21 15 0 6 -4 10 -8 7 -4 -2 -9 1 -11 8 -3 9 -6 9 -12 0z"/>
</g>
</svg>
